<svg width="54" height="48" viewBox="0 0 54 48" fill="none" xmlns="http://www.w3.org/2000/svg">
<g clip-path="url(#clip0_415_1895)">
<path d="M49.7234 16.3394L38.9746 4.74325C38.1195 3.842 36.7149 3.06091 35.7377 3.06091H35.0659H31.5848H23.9506C23.0346 3.06091 22.9735 3.78192 23.8285 4.74325L28.1036 9.3096L29.8136 11.1722L33.6612 15.3179L34.5773 16.3394C35.4323 17.2406 36.8981 18.0217 37.8142 18.0217H47.708H49.6012C50.5173 17.9616 50.5784 17.2406 49.7234 16.3394ZM42.9443 14.9574C42.5779 15.2579 42.0282 15.378 41.2953 15.378C40.0128 15.378 38.6692 14.9574 37.2035 14.1764C36.5317 13.8159 35.8598 13.3953 35.2491 12.8545C34.4552 12.2537 33.7223 11.5327 32.9284 10.7516L32.5008 10.2709C32.0123 9.73018 31.6458 9.24951 31.3405 8.82893C31.0962 8.46843 30.913 8.16801 30.7908 7.86759C30.4854 7.14659 30.4244 6.66592 30.7297 6.24534C30.974 5.88484 31.5237 5.70459 32.3176 5.70459C32.6841 5.70459 32.9894 5.76467 33.3559 5.76467C34.1498 5.88484 35.0659 6.18525 35.9209 6.60584C37.2035 7.20667 38.3638 8.04784 39.4021 9.06926H37.0813C36.5316 8.46843 35.982 8.10793 35.4934 7.80751C35.0048 7.56717 34.4552 7.44701 33.9055 7.44701C33.3559 7.44701 33.1116 7.68734 33.2337 8.10793C33.3559 8.52851 33.8444 9.18943 34.6995 10.1508L35.3102 10.8117C35.5545 11.1121 35.7988 11.3524 36.0431 11.5928C36.6538 12.1936 37.2035 12.6743 37.692 12.9747C38.3638 13.3953 38.9746 13.6356 39.5853 13.6356C40.1349 13.6356 40.3792 13.5154 40.4403 13.2751C40.5014 13.0348 40.2571 12.6142 39.8296 12.1335H42.0893C42.1504 12.1936 42.1503 12.2537 42.2114 12.3138C42.7 12.9146 43.0054 13.4554 43.1275 13.8759C43.3718 14.2965 43.3107 14.657 42.9443 14.9574Z" fill="#65BEEC"/>
<path d="M50.212 27.0342H49.5402H38.425C37.5089 27.0342 36.1653 27.9355 35.4324 29.017L33.1116 32.5619L29.8748 37.4887L28.1647 40.1324L26.3936 42.7761C25.6607 43.8576 25.844 44.7588 26.7601 44.7588H32.1955H36.6539H38.5471C39.4632 44.7588 40.8068 43.8576 41.5397 42.7761L50.5785 28.9569C51.3113 27.9355 51.1281 27.0342 50.212 27.0342ZM44.1047 32.3816H39.8296L38.3028 34.7249H41.9061L40.6236 36.7076H37.0814H37.0203L35.2492 39.4114H39.5243L38.1807 41.5143H33.7224H31.5848L32.4398 40.1925L35.6767 35.2656L38.9135 30.3388H45.5094L44.1047 32.3816Z" fill="#D64793"/>
<path d="M27.1264 21.2662L24.8056 18.8028L23.0956 16.9402L16.3775 9.73016C15.5225 8.82891 14.24 8.94907 13.5682 10.0306L5.018 23.1288L4.59049 23.7897C4.04084 24.5708 3.97976 25.6523 4.3462 26.5535C4.46835 26.8539 4.65157 27.1544 4.83478 27.3947L7.88842 30.6993L15.5836 38.9908C16.4386 39.892 17.7211 39.7719 18.3929 38.6904L21.8741 33.343L23.5841 30.6993L27.3707 24.8712C28.1035 23.7897 27.9814 22.1674 27.1264 21.2662ZM17.9044 32.8022L15.95 30.6993L12.1024 26.5535L9.17095 23.3691L9.35417 23.0687L14.0568 15.8587L15.7057 17.6011L12.591 22.4078L13.2018 23.0687L14.6064 24.5708L15.5836 23.0687L17.4769 20.1847L19.1258 21.9271L18.6983 22.588L16.2554 26.3132L16.4386 26.5535L19.7366 30.0984L19.1258 31.0598L17.9044 32.8022Z" fill="#A5CA60"/>
<path d="M44.1049 32.3816L45.4485 30.3388H38.8527L35.6158 35.2656L32.3789 40.1925L31.5239 41.5143H33.6615H38.1198L39.4634 39.4715H35.1883L36.9594 36.7677H37.0205H40.5627L41.9063 34.785H38.2419L39.8298 32.3816H44.1049Z" fill="white"/>
<path d="M32.1958 44.8189H26.8214C25.9053 44.8189 25.7221 43.9176 26.455 42.8361L28.2261 40.1925L25.7832 37.5488L21.9356 33.403L18.4545 38.7505C17.7216 39.832 16.5001 40.0122 15.6451 39.0509L7.82779 30.6993H5.93454C5.01844 30.6993 4.95737 31.4203 5.81239 32.3816L16.5612 43.9777C17.4162 44.879 18.882 45.6601 19.7981 45.6601H20.4699H31.5851C32.1348 45.6 32.3791 45.2996 32.1958 44.8189Z" fill="#EA5047"/>
<path d="M16.378 26.5536L16.1948 26.3733L18.5766 22.6481L19.0041 21.9872L17.4162 20.2448L15.523 23.1288L14.5458 24.5708L13.2022 23.1288L12.5304 22.4078L15.7062 17.6612L14.0572 15.8587L9.3546 23.1288L9.17139 23.3691L12.1029 26.5536L15.9505 30.6993L17.9048 32.8023L19.0652 31.0598L19.6759 30.0985L16.378 26.5536Z" fill="white"/>
<path d="M51.1893 22.1074C51.0671 21.807 50.8839 21.5066 50.7007 21.2662L47.647 17.9616H37.8143C36.8982 17.9616 35.4325 17.2406 34.5775 16.2793L33.6614 15.2579L31.9513 17.9015L28.1648 23.7296C27.4319 24.8111 27.5541 26.4334 28.4091 27.3347L30.7299 29.7981L33.1728 32.4417L35.4936 28.8968C36.2264 27.8153 37.509 26.9141 38.4861 26.9141H49.6014L51.006 24.7511C51.4946 24.0901 51.5557 23.0086 51.1893 22.1074Z" fill="#F6C363"/>
<path d="M23.9515 3.06091H31.5856C31.5245 2.64033 31.1581 2.39999 30.6084 2.39999H17.4777H16.9281C15.8288 2.39999 14.302 3.42141 13.4469 4.68316L2.88134 20.7855C2.02632 22.0473 2.27061 23.0687 3.36992 23.0687H5.01889L13.5691 9.97051C14.302 8.88901 15.5234 8.70876 16.3784 9.67009L23.0964 16.8801L26.3333 11.9533L28.0433 9.30959L23.7682 4.74325C22.9743 3.842 23.0354 3.06091 23.9515 3.06091Z" fill="#714595"/>
<path d="M42.1504 12.0734L42.2725 12.2537C42.2725 12.1335 42.2115 12.1335 42.1504 12.0734Z" fill="white"/>
<path d="M43.2499 13.8159C43.1278 13.3352 42.8224 12.8545 42.3338 12.2537L42.2117 12.0734H39.952C40.4405 12.6142 40.6238 12.9747 40.5627 13.215C40.5016 13.4554 40.1963 13.5755 39.7077 13.5755C39.0969 13.5755 38.4251 13.3352 37.8144 12.9146C37.3258 12.6142 36.7762 12.1335 36.1655 11.5327C35.9212 11.2923 35.6769 11.052 35.4326 10.7516L34.8218 10.0907C33.9668 9.18943 33.4782 8.46843 33.3561 8.04784C33.234 7.62726 33.4782 7.38693 34.0279 7.38693C34.5776 7.38693 35.1272 7.50709 35.6158 7.74743C36.1044 7.98776 36.654 8.40834 37.2037 9.00918H39.5245C38.3641 8.04784 37.2037 7.20668 35.9212 6.60584C35.0051 6.18526 34.15 5.88484 33.295 5.76467C32.9286 5.70459 32.6232 5.70459 32.2568 5.70459C31.4628 5.70459 30.9132 5.88484 30.6689 6.24534C30.4246 6.60584 30.4246 7.14659 30.73 7.86759C30.8521 8.16801 31.0353 8.46843 31.2796 8.82893C31.585 9.24951 31.9514 9.79026 32.44 10.2709L32.8675 10.7516C33.6004 11.5327 34.3943 12.2537 35.1883 12.8545C35.8601 13.3352 36.4708 13.8159 37.1426 14.1764C38.6084 14.9574 39.952 15.378 41.2345 15.378C41.9674 15.378 42.5781 15.2579 42.8835 14.9574C43.311 14.657 43.372 14.2965 43.2499 13.8159Z" fill="white"/>
</g>
<defs>
<clipPath id="clip0_415_1895">
<rect width="49.0415" height="43.2" fill="white" transform="translate(2.39209 2.39999)"/>
</clipPath>
</defs>
</svg>
