<svg width="290" height="130" viewBox="0 0 290 130" fill="none" xmlns="http://www.w3.org/2000/svg">
<rect width="55" height="20" transform="translate(20 20.001)" fill="white"/>
<path d="M37.7649 37.5898C37.7716 37.5898 37.7782 37.58 37.7782 37.58C37.8313 37.5407 37.8844 37.4917 37.9309 37.4329C37.9243 37.4329 37.9176 37.4329 37.911 37.4231C37.8645 37.4721 37.8114 37.5309 37.7649 37.5898Z" fill="#000091"/>
<path d="M45.1222 35.1108L45.006 35.2108C45.0724 35.1942 45.1222 35.1775 45.1222 35.1108Z" fill="#000091"/>
<path fill-rule="evenodd" clip-rule="evenodd" d="M42.7435 37.6431C42.9566 37.4287 43.1697 37.2014 43.3828 36.9676H43.3764C43.7767 36.5129 44.1642 36.0777 44.6291 35.6814C44.7712 35.5515 44.9068 35.4411 45.0359 35.3501C45.0549 35.3311 45.0646 35.3026 45.0741 35.2748C45.084 35.2457 45.0937 35.2173 45.1134 35.2007C45.0214 35.2359 44.948 35.2914 44.8743 35.3473C44.7979 35.4051 44.7211 35.4632 44.6227 35.4995C44.5839 35.4995 44.5452 35.4606 44.5839 35.4216C44.7195 35.3242 44.8551 35.2202 44.9843 35.1163H44.9585C44.9197 35.1163 44.9197 35.0773 44.9197 35.0384C44.439 34.962 44.0698 35.2908 43.7392 35.5851L43.7186 35.6035C43.6671 35.6294 43.6185 35.6037 43.5803 35.5835C43.561 35.5733 43.5444 35.5645 43.5313 35.5645C43.2389 35.6626 42.9867 35.8433 42.7329 36.0253C42.499 36.1929 42.2638 36.3615 41.9944 36.4674V36.3894C41.903 36.421 41.8126 36.4621 41.7219 36.5033C41.5886 36.564 41.4548 36.6248 41.3164 36.6558C41.0637 36.7144 40.8292 36.7069 40.602 36.6995C40.5274 36.6971 40.4535 36.6947 40.38 36.6947C39.9665 36.7358 39.5581 36.8243 39.1503 36.9128L39.0175 36.9416C39.011 36.9448 39.0046 36.9464 38.9981 36.9481C38.9917 36.9497 38.9852 36.9513 38.9788 36.9546C38.7334 37.0195 38.5074 37.1105 38.2813 37.2404L38.2555 37.2534C38.2466 37.2653 38.2378 37.2758 38.2295 37.2856C38.2197 37.2972 38.2108 37.3078 38.2038 37.3183C38.1264 37.4093 38.0553 37.4872 37.9455 37.5457C37.7834 37.6272 37.6433 37.753 37.5054 37.8767C37.4457 37.9303 37.3861 37.9838 37.3256 38.0328C37.3127 38.0458 37.2869 38.0523 37.2675 38.0523C37.0673 38.2472 36.8671 38.4421 36.6605 38.6304C36.6476 38.6434 36.5895 38.6499 36.5443 38.6434C36.5443 38.6434 36.5507 38.6434 36.5507 38.6369L36.5701 38.598L36.667 38.4421C36.6863 38.4128 36.7041 38.3836 36.7218 38.3544C36.7396 38.3251 36.7574 38.2959 36.7767 38.2667C36.8283 38.1888 36.8801 38.1107 36.9382 38.0393C36.9511 38.0198 36.9511 38.0004 36.9382 37.9874C36.9253 37.9744 36.9059 37.9679 36.8865 37.9679C37.0738 37.786 37.2933 37.6301 37.5193 37.4937V37.4872C37.4935 37.4937 37.4548 37.4742 37.4741 37.4482C37.4931 37.4244 37.5086 37.3971 37.5231 37.3714L37.5387 37.3443C37.5419 37.3378 37.5436 37.3329 37.5452 37.3281C37.5468 37.3232 37.5484 37.3183 37.5516 37.3118C37.5484 37.3053 37.5436 37.3005 37.5387 37.2956C37.5339 37.2907 37.529 37.2858 37.5258 37.2793L37.4866 37.3052C37.4398 37.3358 37.3917 37.3673 37.3515 37.4028C37.3229 37.4273 37.2963 37.461 37.2691 37.4955C37.2098 37.5704 37.1472 37.6496 37.0544 37.6496C37.0479 37.6496 37.0157 37.6496 36.9963 37.6431C36.9769 37.6431 36.964 37.6366 36.9575 37.6301C36.9575 37.6269 36.9575 37.6252 36.9583 37.6244C36.9592 37.6236 36.9608 37.6236 36.964 37.6236C36.964 37.6236 36.9705 37.6171 36.9705 37.6106C36.9705 37.6106 36.9705 37.6041 36.9769 37.6041C36.9801 37.5976 36.9834 37.5928 36.9866 37.5879C36.9898 37.583 36.9931 37.5781 36.9963 37.5716C36.9995 37.5652 37.0027 37.5603 37.006 37.5554C37.0092 37.5505 37.0124 37.5457 37.0157 37.5392C37.0189 37.5359 37.0205 37.531 37.0221 37.5262C37.0237 37.5213 37.0253 37.5164 37.0286 37.5132L37.0359 37.4998C37.0423 37.4884 37.0499 37.4748 37.0544 37.4612C37.0576 37.4547 37.0609 37.4499 37.0641 37.445C37.0673 37.4401 37.0706 37.4352 37.0738 37.4287C37.0835 37.4158 37.0915 37.4011 37.0996 37.3865C37.1077 37.3719 37.1158 37.3573 37.1254 37.3443C37.1319 37.3313 37.1384 37.3183 37.1513 37.3053C37.1577 37.2923 37.1642 37.281 37.1706 37.2696C37.1771 37.2582 37.1836 37.2469 37.19 37.2339C37.2094 37.2014 37.19 37.1754 37.1642 37.1689C37.2352 37.078 37.3192 37 37.4225 36.9416H37.4096C37.4987 36.8967 37.5904 36.8442 37.6815 36.7921C37.7352 36.7613 37.7896 36.7301 37.8422 36.7012C37.8616 36.6817 37.881 36.6623 37.9068 36.6493C37.6937 36.7207 37.5 36.8182 37.3127 36.9481C37.3127 36.9481 37.261 36.9676 37.2481 36.9805C37.2481 36.9805 37.2094 36.9935 37.1577 36.9481C37.1513 36.9416 37.1513 36.9351 37.1513 36.9221C37.1737 36.8769 37.22 36.847 37.27 36.8147C37.3064 36.7912 37.3447 36.7665 37.3773 36.7337C37.416 36.7337 37.4483 36.7337 37.4483 36.7727C38.192 36.1895 39.1091 36.0546 40.0292 35.9192C40.5951 35.8359 41.1622 35.7525 41.6909 35.5645C41.7458 35.5255 41.8023 35.4882 41.8588 35.4508C41.9153 35.4135 41.9718 35.3761 42.0267 35.3372C42.1209 35.298 42.2053 35.2308 42.2947 35.1597C42.383 35.0894 42.4762 35.0153 42.5885 34.9604C42.8856 34.7331 43.1116 34.4732 43.2278 34.09C43.2278 34.051 43.1891 34.0121 43.1891 34.0121C42.6983 34.5382 42.1365 34.9539 41.5359 35.2592C40.9633 35.5614 40.3497 35.6062 39.7423 35.6505C39.5141 35.6671 39.2867 35.6837 39.0627 35.7139C39.1014 35.636 39.1789 35.636 39.25 35.636C39.25 35.5437 39.2942 35.504 39.3509 35.4531C39.366 35.4395 39.3821 35.4251 39.3985 35.4086H39.5083C39.5276 35.4086 39.5373 35.3891 39.547 35.3696C39.5567 35.3501 39.5664 35.3307 39.5858 35.3307C39.6633 35.3307 39.773 35.2917 39.7343 35.2917C39.6751 35.2155 39.589 35.2457 39.494 35.279C39.4027 35.311 39.3031 35.3458 39.2112 35.2917C39.2454 35.2542 39.2556 35.2092 39.265 35.1683C39.2751 35.1241 39.2841 35.0846 39.321 35.0643H39.4695C39.4695 34.9864 39.547 34.9149 39.547 34.9149C39.8838 34.7125 40.209 34.5357 40.5281 34.3621C40.7413 34.2462 40.952 34.1317 41.1614 34.0121C41.119 34.0121 41.0815 34.0295 41.045 34.0464C40.987 34.0733 40.9318 34.0989 40.8644 34.051C40.9031 34.051 40.9031 34.0234 40.9031 33.9958C40.9031 33.9682 40.9031 33.9406 40.9419 33.9406C41.1841 33.8759 41.3997 33.771 41.62 33.6638C41.7754 33.5882 41.9332 33.5114 42.1042 33.4469C42.0534 33.4469 42.0065 33.4606 41.9607 33.4739C41.8725 33.4995 41.7887 33.5239 41.6909 33.4469C41.7166 33.434 41.7373 33.4176 41.7577 33.4013C41.799 33.3685 41.8392 33.3365 41.9169 33.3365V33.2261C41.9169 33.1871 41.9557 33.1871 41.9944 33.1871C41.9557 33.1871 41.9169 33.1481 41.9169 33.1481C41.9375 33.1069 41.9779 33.0984 42.0229 33.0889C42.0629 33.0805 42.1065 33.0713 42.143 33.0377C42.1042 33.0377 42.0332 33.0377 42.0332 32.9987C42.143 32.8493 42.3302 32.8104 42.5175 32.7714C42.4981 32.7324 42.461 32.7324 42.4287 32.7324C42.3964 32.7324 42.369 32.7324 42.369 32.6934C42.369 32.6545 42.4077 32.6545 42.4465 32.6545H42.369C42.3082 32.6239 42.3189 32.5693 42.3264 32.5315C42.3284 32.5212 42.3302 32.5121 42.3302 32.5051C42.4819 32.3263 42.5318 32.1154 42.5814 31.9056C42.6057 31.8029 42.6299 31.7004 42.666 31.6022C42.6273 31.6022 42.5885 31.6022 42.5885 31.5632C42.2254 31.9662 41.6499 32.1189 41.1032 32.264L41.0516 32.2777H40.8644C40.6771 32.3557 40.4123 32.3557 40.2251 32.2387C40.136 32.192 40.0725 32.1336 40.0039 32.0705C39.9581 32.0284 39.91 31.9842 39.8505 31.9399C39.547 31.7516 39.25 31.6022 38.9142 31.4853C37.9778 31.1865 37.0027 31.0306 36.0277 31.0695C36.2999 30.9197 36.5891 30.8602 36.8821 30.7998C37.0338 30.7686 37.1865 30.7371 37.3385 30.6928C37.4344 30.6645 37.5294 30.6354 37.6239 30.6064C38.1595 30.4422 38.6791 30.2829 39.25 30.316C39.1753 30.2895 39.0796 30.2991 38.9915 30.3079C38.9502 30.3121 38.9105 30.316 38.8754 30.316C38.4438 30.2839 38.0078 30.38 37.5528 30.4803C37.4564 30.5015 37.3592 30.523 37.261 30.5434C37.0829 30.5805 36.9134 30.6337 36.7438 30.6871C36.5568 30.7459 36.3695 30.8047 36.1697 30.8422C36.0831 30.8721 36.0135 30.9229 35.9458 30.9725C35.8368 31.0522 35.7324 31.1285 35.5692 31.1085V30.9916C35.9437 30.5369 36.3957 30.0887 36.9963 30.0497C37.5768 29.9552 38.1242 30.0225 38.6952 30.0928C38.7911 30.1046 38.8877 30.1165 38.9852 30.1277C39.4533 30.1653 39.8912 30.2698 40.3632 30.3823L40.4123 30.394C40.5157 30.394 40.5738 30.4849 40.63 30.573C40.6758 30.6446 40.7203 30.7143 40.7869 30.7318C40.8788 30.7635 40.9707 30.7694 41.0627 30.7753C41.1968 30.7839 41.3308 30.7925 41.4649 30.8812C41.4649 30.8549 41.4605 30.8294 41.4562 30.8042C41.4476 30.7544 41.4392 30.7055 41.4649 30.6538C41.5482 30.57 41.6437 30.5925 41.7378 30.6146C41.8114 30.632 41.884 30.6491 41.9492 30.6148C42.154 30.4877 41.9619 30.2926 41.7697 30.0974C41.677 30.0032 41.5843 29.909 41.5359 29.8224C41.5359 29.7834 41.5747 29.7444 41.5747 29.7444C41.6595 29.8205 41.7385 29.8991 41.8168 29.9771C42.0129 30.1724 42.2047 30.3633 42.4723 30.4979C42.6596 30.5759 43.1116 30.6863 43.0341 30.4589C42.9015 30.1645 42.6749 29.9092 42.4461 29.6514C42.3519 29.5452 42.2573 29.4386 42.1688 29.3287V29.1793C42.1099 29.1793 42.0958 29.1568 42.0782 29.1289C42.0727 29.1201 42.0668 29.1107 42.059 29.1014V28.952C41.9643 28.9023 41.9431 28.8236 41.9218 28.7444C41.9097 28.6994 41.8975 28.6542 41.8717 28.6142C41.807 28.5093 41.8024 28.3802 41.7976 28.2472C41.7937 28.1413 41.7898 28.0329 41.7555 27.9322C41.678 27.7048 41.6457 27.5164 41.607 27.2891C41.5649 27.0565 41.5187 26.8341 41.4734 26.6164C41.3934 26.2322 41.3165 25.8624 41.2712 25.4768C41.2114 24.9257 41.4897 24.4596 41.7742 23.9831C41.8586 23.8418 41.9435 23.6997 42.0203 23.5541C42.285 23.0994 42.5821 22.6512 43.0728 22.3459C43.1799 21.9025 43.4713 21.5331 43.7612 21.1656L43.7832 21.1377C44.0693 20.7811 44.5471 20.5631 44.8993 20.4024L44.9391 20.3842C45.4621 20.1504 45.9335 20.001 45.94 20.001H20V40.001H38.404C38.8962 39.6442 39.3854 39.419 39.9677 39.151C40.2334 39.0288 40.5185 38.8976 40.8321 38.7409C40.8985 38.7075 40.9774 38.6686 41.065 38.6255C41.5906 38.3669 42.428 37.9549 42.7435 37.6431ZM36.9037 34.9448C36.8307 34.9521 36.7533 34.9599 36.7825 34.9012C36.8096 34.7698 36.9442 34.7304 37.0757 34.6919C37.132 34.6754 37.1877 34.6591 37.2341 34.6358L37.2554 34.6248L37.2709 34.6166C37.3437 34.5779 37.4328 34.5306 37.4986 34.5581C37.543 34.6212 37.598 34.6375 37.6514 34.6533C37.6912 34.6651 37.7301 34.6766 37.7631 34.707C37.6236 34.8471 37.4607 34.8609 37.2955 34.8749C37.1858 34.8842 37.0752 34.8936 36.9696 34.9401C36.9506 34.9401 36.9274 34.9424 36.9037 34.9448ZM31.1906 34.0314C31.1906 34.0703 31.2293 34.1093 31.2293 34.1093C32.1334 33.0895 32.9535 32.2191 34.1159 31.4981C34.147 31.485 34.1354 31.5013 34.12 31.523C34.0971 31.5552 34.0657 31.5993 34.1546 31.576C34.5394 31.4883 34.7123 31.1586 34.8804 30.8379C34.9239 30.7549 34.967 30.6726 35.0135 30.5952C35.1898 30.3083 35.4403 30.1246 35.6927 29.9394C35.8747 29.8059 36.0577 29.6716 36.2146 29.4974C36.2146 29.5364 36.2146 29.5754 36.1758 29.6143C36.2146 29.6533 36.2533 29.6533 36.2921 29.6533C36.3602 29.6019 36.4346 29.5806 36.5058 29.5603C36.5967 29.5343 36.6826 29.5097 36.7441 29.426C36.4471 29.309 36.0661 29.2701 35.769 29.387C34.9812 29.7637 34.3096 30.3678 33.6703 31.0499C33.2828 31.4591 32.8825 31.8423 32.3917 32.1087C32.0559 32.7842 31.6814 33.3883 31.1906 34.0314ZM34.3432 31.6155C34.3229 31.6562 34.3027 31.6773 34.2834 31.6975C34.2658 31.7159 34.2489 31.7336 34.2335 31.7645C34.1948 31.8422 34.1561 31.8745 34.0851 31.9134C34.0464 31.9134 34.0077 31.9134 34.0077 31.8745C34.0464 31.7256 34.1561 31.5767 34.3045 31.5378C34.3432 31.5443 34.3432 31.5832 34.3432 31.6155ZM35.9945 37.3841C36.0267 37.3516 36.0654 37.3126 36.0848 37.2736C36.1171 37.1957 35.9171 37.2152 35.8848 37.2347C35.8555 37.2583 35.8369 37.2818 35.8144 37.3103L35.8074 37.3191C35.7805 37.3501 35.749 37.3787 35.717 37.4078C35.6953 37.4276 35.6734 37.4475 35.6526 37.4685C35.5622 37.5595 35.4719 37.6504 35.3751 37.7348C35.3106 37.7933 35.5171 37.8193 35.5622 37.7803C35.6138 37.7413 35.659 37.6959 35.7042 37.6504C35.7214 37.6504 35.7386 37.6475 35.75 37.6456L35.7579 37.6443L35.7622 37.6439C35.8692 37.608 35.9488 37.5336 36.0262 37.4611L36.0461 37.4425C36.0719 37.4166 36.0396 37.3906 35.9945 37.3841ZM35.4106 36.9617C35.4099 36.9618 35.4094 36.962 35.409 36.9623C35.4082 36.9632 35.4082 36.9648 35.4082 36.968C35.3686 36.9952 35.3295 37.0229 35.2905 37.0505C35.1895 37.1219 35.0891 37.1929 34.982 37.2538C34.8796 37.3115 34.7746 37.3614 34.6686 37.4117C34.6075 37.4407 34.5462 37.4698 34.4848 37.5007C34.4848 37.5007 34.4848 37.4942 34.4783 37.4942C34.4654 37.4747 34.4396 37.4682 34.4138 37.4812C34.2717 37.5591 34.149 37.6631 34.0392 37.7735C34.0199 37.7865 34.0005 37.806 33.9876 37.8255L33.9294 37.8839V37.8904C33.9036 37.9164 33.8778 37.9424 33.8455 37.9813C33.8388 37.9881 33.8336 37.9949 33.8287 38.0013C33.8193 38.0136 33.8107 38.0248 33.7938 38.0333C33.768 38.0463 33.7034 38.0463 33.7099 38.0073V38.0008C33.6905 38.0138 33.6647 38.0268 33.6453 38.0333C33.6356 38.0398 33.6259 38.0447 33.6163 38.0495C33.6066 38.0544 33.5969 38.0593 33.5872 38.0658C33.5807 38.0593 33.5678 38.0593 33.5614 38.0593C33.5549 38.0593 33.542 38.0593 33.5355 38.0658C33.5205 38.0788 33.5054 38.091 33.4903 38.1033C33.4602 38.1279 33.4301 38.1524 33.3999 38.1827C33.3224 38.2542 33.2514 38.3321 33.1804 38.4166C33.1804 38.4166 33.1804 38.423 33.1739 38.423C33.1739 38.4263 33.1723 38.4279 33.1707 38.4295C33.1691 38.4312 33.1675 38.4328 33.1675 38.436L33.1545 38.449C33.1521 38.4515 33.1505 38.454 33.1492 38.4561C33.1471 38.4595 33.1456 38.462 33.1416 38.462L33.1352 38.4685C33.1287 38.4815 33.1223 38.4945 33.1093 38.5075C33.1029 38.514 33.09 38.5205 33.0771 38.5205C33.0706 38.514 33.0641 38.5075 33.0641 38.501C33.0609 38.4977 33.0593 38.4945 33.0577 38.4913C33.0561 38.488 33.0544 38.4848 33.0512 38.4815C33.0448 38.4718 33.0399 38.462 33.0351 38.4523C33.0302 38.4425 33.0254 38.4328 33.0189 38.423V38.4166C33.0189 38.4133 33.0173 38.4101 33.0157 38.4068C33.0141 38.4036 33.0125 38.4003 33.0125 38.3971L33.1287 38.2607L33.1352 38.2542C33.1416 38.2477 33.1481 38.2396 33.1545 38.2314C33.161 38.2233 33.1675 38.2152 33.1739 38.2087C33.1836 38.1957 33.1949 38.1827 33.2062 38.1697C33.2175 38.1567 33.2288 38.1437 33.2385 38.1307C33.2417 38.1242 33.2449 38.1194 33.2482 38.1145C33.2514 38.1096 33.2546 38.1048 33.2579 38.0983C33.2966 38.0463 33.3354 37.9943 33.3741 37.9359V37.9294C33.3806 37.9229 33.387 37.9164 33.387 37.9034C33.4064 37.8774 33.4258 37.8514 33.4387 37.8255L33.4774 37.7475V37.741L33.4839 37.7345C33.4839 37.7313 33.4855 37.7296 33.4871 37.728C33.4887 37.7264 33.4903 37.7248 33.4903 37.7215C33.4968 37.7053 33.5032 37.6907 33.5097 37.6761C33.5161 37.6615 33.5226 37.6468 33.5291 37.6306V37.6241L33.5355 37.5981C33.5388 37.5916 33.5404 37.5851 33.542 37.5786C33.5436 37.5721 33.5452 37.5656 33.5485 37.5591V37.5526C33.5517 37.5429 33.5533 37.5331 33.5549 37.5234C33.5565 37.5137 33.5581 37.5039 33.5614 37.4942C33.5614 37.4877 33.5614 37.4747 33.5549 37.4682C33.5937 37.3967 33.6453 37.3318 33.7034 37.2668C33.7002 37.2668 33.697 37.2684 33.6937 37.2701C33.6919 37.271 33.69 37.2719 33.6882 37.2726C33.6868 37.273 33.6854 37.2733 33.6841 37.2733C33.6553 37.2914 33.6306 37.3155 33.6054 37.34C33.5853 37.3596 33.5649 37.3794 33.542 37.3967C33.5032 37.4292 33.4258 37.3773 33.4774 37.3383C33.5097 37.3123 33.5355 37.2863 33.5613 37.2604C33.5613 37.2604 33.5614 37.2538 33.5678 37.2538C33.5936 37.2305 33.6183 37.2041 33.6432 37.1775C33.6808 37.1374 33.7188 37.0967 33.7615 37.0655C33.8068 37.033 33.839 37.007 33.8778 36.9745C33.8842 36.968 33.8907 36.9615 33.8972 36.9615C33.923 36.9291 33.9488 36.8966 33.9811 36.8641C33.9811 36.8641 33.9876 36.8641 33.9876 36.8576C34.2093 36.6425 34.5209 36.5666 34.839 36.4892C35.0396 36.4404 35.2428 36.3909 35.4276 36.3055C35.532 36.262 35.6484 36.2791 35.7635 36.296C35.8548 36.3094 35.9453 36.3227 36.0282 36.3055C36.1379 36.3055 36.2542 36.3055 36.3639 36.3834C36.1086 36.5194 35.8649 36.6749 35.6238 36.8287C35.554 36.8733 35.4843 36.9178 35.4147 36.9615C35.4129 36.9615 35.4116 36.9615 35.4106 36.9617ZM36.2176 34.3142C36.1874 34.3177 36.1678 34.32 36.1846 34.3368C36.2943 34.4473 36.5204 34.4083 36.6753 34.3239C36.7851 34.2459 36.9014 34.2459 37.0499 34.2459C37.0886 34.2459 37.0886 34.1745 37.0886 34.1355C37.1984 34.1745 37.2759 34.1745 37.3857 34.1745C38.2833 33.9861 39.1486 33.7977 39.9751 33.382C39.1388 32.7357 38.1077 32.4478 37.0978 32.1659C36.9302 32.1191 36.7632 32.0725 36.5978 32.0244C36.6342 32.0244 36.6706 32.0365 36.7072 32.0487C36.781 32.0733 36.8559 32.0983 36.9336 32.0244C36.8312 31.9427 36.7171 31.927 36.6041 31.9116C36.5106 31.8987 36.4179 31.886 36.3331 31.836C36.3419 31.836 36.3525 31.8381 36.3639 31.8403C36.4026 31.8477 36.4517 31.8572 36.4816 31.7971C36.2855 31.6984 36.0893 31.6649 35.8913 31.6311C35.7894 31.6137 35.6871 31.5962 35.584 31.5697C35.7713 31.5307 35.8875 31.3813 35.8875 31.193C35.8875 31.154 35.81 31.154 35.7713 31.154C35.3257 31.3813 35.0222 31.7971 34.8349 32.2842C35.0038 32.3836 35.1857 32.3721 35.3641 32.3608C35.4654 32.3544 35.5656 32.3481 35.6615 32.3622C35.5768 32.4426 35.4545 32.4645 35.3368 32.4855C35.293 32.4933 35.2498 32.501 35.2095 32.5116C35.0932 32.5376 34.9835 32.622 35.0222 32.7C35.048 32.7324 35.0739 32.7454 35.1062 32.7519C35.0222 32.7779 34.9447 32.8169 34.8737 32.8883C34.98 32.972 35.0896 32.9559 35.1978 32.9399C35.2408 32.9336 35.2835 32.9273 35.3257 32.9273C35.3257 32.9745 35.3567 32.9905 35.3889 33.0072C35.4054 33.0157 35.4223 33.0245 35.4355 33.0377C35.2482 33.1092 35.0997 33.2651 35.0609 33.3755C35.0147 33.488 34.9292 33.5611 34.8445 33.6336C34.7874 33.6825 34.7306 33.7311 34.6864 33.7912V33.9081C34.5617 34.0187 34.4334 34.1175 34.307 34.2149C34.0472 34.415 33.7949 34.6094 33.5951 34.889C33.6338 34.889 33.6338 34.9279 33.6338 34.9669C33.5981 35.0208 33.5473 35.0582 33.4991 35.0936C33.4427 35.135 33.3899 35.1737 33.3691 35.2332C33.3691 35.2722 33.3691 35.3112 33.4078 35.3112C33.6448 35.2329 33.8498 35.101 34.0508 34.9717C34.2332 34.8544 34.4123 34.7392 34.6089 34.6681C34.7696 34.6295 34.9095 34.5566 35.046 34.4855C35.1618 34.4252 35.2752 34.3661 35.3967 34.3303C35.4904 34.3109 35.5937 34.2833 35.697 34.2557C35.8003 34.228 35.9037 34.2004 35.9973 34.181C35.9973 34.2199 35.9973 34.2589 36.036 34.2589H36.3331C36.3148 34.3031 36.2571 34.3097 36.2176 34.3142Z" fill="#000091"/>
<path d="M75.0009 20.001H53.4894C53.4894 20.001 53.5284 20.0075 53.691 20.092C53.8666 20.1831 54.0942 20.3066 54.2307 20.3781C54.5103 20.5212 54.777 20.7032 54.9525 20.9828C55.0306 21.0933 55.1411 21.3209 55.0696 21.4704C54.9916 21.659 54.9525 21.9646 54.764 22.0361C54.5364 22.1532 54.2372 22.1532 53.9706 22.1141C53.821 22.1141 53.6715 22.0751 53.5154 22.0361C54.0811 22.2637 54.6144 22.5303 54.9916 23.0569C55.0306 23.1349 55.1801 23.1675 55.3297 23.1675C55.3687 23.1675 55.3687 23.2455 55.3687 23.278C55.2907 23.356 55.2192 23.395 55.2582 23.5056H55.3687C55.5573 23.4275 55.5183 23.0504 55.7849 23.1675C55.9735 23.278 56.0515 23.5446 55.9345 23.7331C55.7849 23.8827 55.6353 23.9997 55.4793 24.1102C55.4403 24.1883 55.4403 24.2988 55.4793 24.3768C55.5898 24.5264 55.6288 24.6759 55.6679 24.832C55.7849 25.0985 55.8174 25.3976 55.9345 25.6642C56.084 26.2299 56.2336 26.7955 56.2011 27.3677C56.2011 27.6668 56.0515 27.9334 56.1621 28.239C56.2401 28.5381 56.4287 28.7656 56.5783 29.0322C56.7278 29.2598 56.8774 29.4093 56.9944 29.6369C57.222 30.014 57.6382 30.3911 57.4496 30.8463C57.3391 31.1128 56.9229 31.0738 56.6563 31.2234C56.4287 31.4119 56.6173 31.7175 56.7343 31.9061C56.9229 32.2442 56.5067 32.4717 56.2401 32.5888C56.3181 32.7058 56.4677 32.6668 56.5067 32.7383C56.5457 32.9269 56.7343 33.0374 56.6173 33.2325C56.4677 33.46 56.0125 33.5706 56.2401 33.9152C56.3897 34.1818 56.2921 34.4743 56.2011 34.7474C56.0905 35.0855 55.7849 35.2351 55.5183 35.3131C55.2907 35.3911 55.0241 35.3911 54.803 35.3521C54.7249 35.3131 54.6534 35.2741 54.5754 35.2741C53.9316 35.1961 53.2878 35.014 52.6505 35.014C52.4619 35.053 52.2733 35.0855 52.1238 35.1636C51.9547 35.2871 51.7986 35.4236 51.6686 35.5667C51.6686 35.5667 51.6686 35.5667 51.6621 35.5732C51.6361 35.6057 51.6035 35.6317 51.5775 35.6642C51.5645 35.6837 51.545 35.7032 51.532 35.7227C51.519 35.7357 51.5125 35.7487 51.4995 35.7617C51.389 35.8983 51.2914 36.0478 51.2004 36.1974C51.1939 36.2104 51.1874 36.2169 51.1809 36.2234C51.1744 36.2429 51.1614 36.2559 51.1483 36.2754C51.0248 36.503 50.9338 36.737 50.8622 36.9711C50.6021 37.8359 50.7192 38.5771 50.9012 38.7591C50.9533 38.8111 52.1498 39.1818 52.9822 39.5524C53.3723 39.7279 53.6455 39.858 53.8731 40.001H74.9944V20.001H75.0009Z" fill="#E1000F"/>
<path d="M54.7655 27.2956C54.9151 27.3346 55.1428 27.3346 55.1428 27.4125C55.0647 27.7112 54.6159 27.7891 54.3883 28.0943H54.2712C54.1606 28.1723 54.1931 28.3606 54.0826 28.3606C53.972 28.3216 53.8549 28.3606 53.7444 28.3995C53.894 28.5489 54.0826 28.6658 54.3102 28.6268C54.3492 28.6268 54.4208 28.7047 54.4208 28.7761C54.4208 28.7761 54.4598 28.7761 54.4988 28.7372C54.5379 28.7372 54.5769 28.7372 54.5769 28.7761V28.9255C54.4663 29.0748 54.2712 29.0034 54.1216 29.0359C54.4273 29.1138 54.7265 29.1138 54.9932 29.0359C55.2208 28.958 54.9932 28.5813 55.1428 28.393C55.0647 28.393 55.1428 28.2762 55.0647 28.2762C55.1428 28.1982 55.2143 28.0878 55.2924 28.0489C55.3704 28.0489 55.481 28.0099 55.52 27.932C55.52 27.8541 55.3704 27.8216 55.4029 27.7437C55.6306 27.5943 55.8192 27.3671 55.7411 27.1398C55.7021 27.0229 55.4029 27.0229 55.2143 26.9515C55.0257 26.8801 54.798 26.9515 54.5704 26.9904C54.3818 26.9904 54.1931 27.1073 54.0045 27.1398C53.7379 27.2177 53.5102 27.3671 53.2891 27.5164C53.5557 27.406 53.8159 27.3671 54.1216 27.2891C54.3492 27.2956 54.5379 27.2437 54.7655 27.2956Z" fill="#808080"/>
<path d="M22.06 65.001V51.001H26.34C29.42 51.001 31.32 52.581 31.32 55.181C31.32 56.881 30.5 58.141 29.06 58.801L33.44 65.001H30.1L26.36 59.341H24.9V65.001H22.06ZM26.5 53.361H24.9V56.981H26.5C27.7 56.981 28.4 56.281 28.4 55.141C28.4 54.081 27.7 53.361 26.5 53.361ZM40.8789 49.801H38.2989L40.5589 47.101H43.4789L40.8789 49.801ZM35.5389 65.001V51.001H43.6989V53.361H38.3789V56.681H42.8989V59.041H38.3789V62.641H43.6989V65.001H35.5389ZM47.2991 65.001V51.001H51.9191C54.9991 51.001 56.8791 52.581 56.8791 55.181C56.8791 57.761 54.9991 59.341 51.9191 59.341H50.1391V65.001H47.2991ZM52.0391 53.361H50.1391V56.981H52.0391C53.2391 56.981 53.9591 56.281 53.9591 55.141C53.9591 54.081 53.2391 53.361 52.0391 53.361ZM67.7842 59.761V51.001H70.6242V59.521C70.6242 63.201 68.4642 65.401 64.9442 65.401C61.4442 65.401 59.2842 63.201 59.2842 59.521V51.001H62.1242V59.761C62.1242 61.641 63.1842 62.741 64.9642 62.741C66.7042 62.741 67.7842 61.641 67.7842 59.761ZM74.4522 65.001V51.001H78.5722C81.4922 51.001 83.2722 52.441 83.2722 54.801C83.2722 55.941 82.7522 56.921 81.7722 57.561C83.2522 58.221 84.0722 59.421 84.0722 60.881C84.0722 63.441 82.0922 65.001 78.8722 65.001H74.4522ZM78.6322 53.361H77.2922V56.521H78.6322C79.7122 56.521 80.3522 55.941 80.3522 54.921C80.3522 53.941 79.7122 53.361 78.6322 53.361ZM79.0322 58.881H77.2922V62.641H79.0322C80.3522 62.641 81.1522 61.941 81.1522 60.761C81.1522 59.561 80.3522 58.881 79.0322 58.881ZM87.2866 65.001V51.001H90.1266V62.421H95.4466V65.001H87.2866ZM98.2459 65.001V51.001H101.086V65.001H98.2459ZM117.039 64.641C118.119 65.621 119.079 65.981 119.979 65.981C120.279 65.981 120.679 65.941 120.979 65.821V68.221C120.519 68.401 120.119 68.481 119.499 68.481C117.939 68.481 116.499 67.841 115.119 66.641L113.459 65.161C112.859 65.321 112.219 65.401 111.539 65.401C107.119 65.401 104.099 62.001 104.099 58.001C104.099 54.001 107.119 50.601 111.539 50.601C115.939 50.601 118.959 54.001 118.959 58.001C118.959 60.341 117.919 62.481 116.199 63.841L117.039 64.641ZM111.539 62.741C114.159 62.741 116.039 60.681 116.039 58.001C116.039 55.321 114.159 53.261 111.539 53.261C108.899 53.261 107.019 55.321 107.019 58.001C107.019 60.681 108.899 62.741 111.539 62.741ZM130.237 59.761V51.001H133.077V59.521C133.077 63.201 130.917 65.401 127.397 65.401C123.897 65.401 121.737 63.201 121.737 59.521V51.001H124.577V59.761C124.577 61.641 125.637 62.741 127.417 62.741C129.157 62.741 130.237 61.641 130.237 59.761ZM136.905 65.001V51.001H145.065V53.361H139.745V56.681H144.265V59.041H139.745V62.641H145.065V65.001H136.905ZM154.156 65.001V51.001H162.316V53.361H156.996V56.681H161.516V59.041H156.996V65.001H154.156ZM165.115 65.001V51.001H169.395C172.475 51.001 174.375 52.581 174.375 55.181C174.375 56.881 173.555 58.141 172.115 58.801L176.495 65.001H173.155L169.415 59.341H167.955V65.001H165.115ZM169.555 53.361H167.955V56.981H169.555C170.755 56.981 171.455 56.281 171.455 55.141C171.455 54.081 170.755 53.361 169.555 53.361ZM177.44 65.001L182.74 51.001H186.46L191.76 65.001H188.74L187.4 61.361H181.8L180.46 65.001H177.44ZM182.68 58.941H186.52L184.6 53.681L182.68 58.941ZM194.222 65.001V51.001H197.862L204.122 61.121V51.001H206.962V65.001H203.322L197.062 54.881V65.001H194.222ZM217.417 62.741C219.017 62.741 220.277 61.961 221.077 60.821L223.317 62.541C222.237 64.021 220.557 65.061 218.517 65.321L216.777 68.221H214.257L216.017 65.281C212.377 64.641 209.977 61.561 209.977 58.001C209.977 54.001 212.997 50.601 217.417 50.601C219.957 50.601 222.037 51.741 223.317 53.441L221.077 55.181C220.277 54.041 219.017 53.261 217.417 53.261C214.777 53.261 212.897 55.321 212.897 58.001C212.897 60.681 214.777 62.741 217.417 62.741ZM224.224 65.001L229.524 51.001H233.244L238.544 65.001H235.524L234.184 61.361H228.584L227.244 65.001H224.224ZM229.464 58.941H233.304L231.384 53.681L229.464 58.941ZM241.006 65.001V51.001H243.846V65.001H241.006ZM246.799 63.061L248.859 61.161C249.699 62.241 250.819 62.881 251.959 62.881C253.079 62.881 253.759 62.281 253.759 61.281C253.759 58.701 247.399 59.401 247.399 54.661C247.399 52.441 249.239 50.601 251.919 50.601C254.019 50.601 255.619 51.541 256.819 52.961L254.739 54.841C253.919 53.781 252.999 53.081 251.939 53.081C250.939 53.081 250.279 53.721 250.279 54.561C250.279 57.101 256.639 56.381 256.639 61.181C256.599 63.821 254.559 65.401 251.979 65.401C249.619 65.401 248.039 64.541 246.799 63.061ZM259.917 65.001V51.001H268.077V53.361H262.757V56.681H267.277V59.041H262.757V62.641H268.077V65.001H259.917Z" fill="#161616"/>
<path fill-rule="evenodd" clip-rule="evenodd" d="M71.96 100.701L70.1 102.401H69.62L70.72 100.461H71.96V100.701ZM70.62 107.28H70.22C69.72 107.88 69.16 108.36 68.62 108.36C68.06 108.36 67.78 108.02 67.78 107.28C67.78 106.98 67.82 106.66 67.88 106.38L71.14 105.3C71.78 103.78 71.02 103.12 70.12 103.12C68.58 103.12 66.82 105.82 66.82 107.98C66.82 109 67.3 109.56 68.06 109.56C68.94 109.54 69.86 108.68 70.62 107.28ZM69.5012 104.001C69.9412 104.001 70.3213 104.341 70.1213 105.121L68.1012 105.661C68.4212 104.701 69.0212 104.001 69.5012 104.001ZM63.1421 104.04H64.2221L62.5021 108.76C62.3421 109.16 62.5621 109.56 62.9821 109.56C64.2021 109.56 65.6621 108.52 66.2221 107.04H65.9221C65.4821 107.66 64.5221 108.34 63.8021 108.46L65.3821 104.04H67.0021L67.2021 103.36H65.6221L66.2221 101.66H65.6021L64.4821 103.36L63.1421 103.54V104.04ZM61.6409 103.141C61.8609 103.141 62.161 103.381 62.021 103.821L60.0809 108.521C60.5809 108.441 61.1009 107.961 61.4009 107.521H61.7209C61.2609 108.701 60.2209 109.561 59.3209 109.561C59.1009 109.561 58.7809 109.321 58.9409 108.881L60.7409 104.181C60.2409 104.261 59.7209 104.741 59.4209 105.181H59.1209C59.5809 103.981 60.7009 103.141 61.6409 103.141ZM62.2023 101.941C62.6023 101.941 62.9423 101.621 62.9423 101.201C62.9423 100.801 62.6023 100.461 62.2023 100.461C61.7823 100.461 61.4623 100.801 61.4623 101.201C61.4623 101.601 61.8023 101.941 62.2023 101.941ZM53.4619 105.841C53.9019 104.881 53.7419 104.441 53.4619 104.441C53.2219 104.441 52.9418 104.701 52.6618 105.181H52.3618C52.8218 104.161 53.4219 103.141 54.0819 103.141C54.6419 103.141 54.8419 103.701 54.8419 104.321V105.201C54.9319 105.097 55.0195 104.994 55.1051 104.893L55.1067 104.891L55.108 104.89C55.9529 103.898 56.5981 103.141 57.3419 103.141C57.9219 103.141 58.2219 103.501 58.2219 104.041C58.2219 104.361 58.1219 104.761 57.9019 105.181L56.2419 108.521C56.7419 108.441 57.2619 107.961 57.5619 107.521H57.8619C57.4019 108.721 56.2819 109.561 55.3419 109.561C54.9219 109.561 54.6819 109.121 54.8619 108.761L56.7819 105.061C57.0019 104.641 57.0419 104.361 56.7019 104.361C56.2419 104.361 55.1619 105.121 54.5819 105.821L53.3219 109.141C53.1819 109.481 53.0419 109.561 52.7218 109.561C52.2018 109.561 51.9418 109.221 52.1818 108.681L53.4619 105.841ZM52.1604 104.56C52.3804 103.8 52.2604 103.12 51.6803 103.12C50.957 103.12 50.7305 103.598 50.0296 105.076L49.9803 105.18V104.3C49.9803 103.68 49.7803 103.12 49.2203 103.12C48.5603 103.12 47.9603 104.14 47.5003 105.16H47.8003C48.1203 104.7 48.4203 104.42 48.6603 104.42C48.9403 104.42 49.1003 104.86 48.6603 105.82L47.3803 108.66C47.1403 109.2 47.4003 109.54 47.9203 109.54C48.2403 109.54 48.3803 109.46 48.5203 109.12L49.7803 105.8C50.1403 105.36 50.4603 104.98 50.8603 104.56H52.1604ZM45.8407 105.121C46.0407 104.341 45.6607 104.001 45.2207 104.001C44.7407 104.001 44.1407 104.701 43.8207 105.661L45.8407 105.121ZM46.3395 107.28H45.9395C45.4395 107.88 44.8795 108.36 44.3394 108.36C43.7794 108.36 43.4994 108.02 43.4994 107.28C43.4994 106.98 43.5394 106.66 43.5994 106.38L46.8595 105.3C47.4995 103.78 46.7395 103.12 45.8395 103.12C44.2994 103.12 42.5394 105.82 42.5394 107.98C42.5394 109 43.0194 109.56 43.7794 109.56C44.6595 109.54 45.5795 108.68 46.3395 107.28ZM39.9415 104.04H38.8615V103.54L40.2016 103.36L41.3216 101.66H41.9416L41.3416 103.36H42.9216L42.7216 104.04H41.1016L39.5215 108.46C40.2416 108.34 41.2016 107.66 41.6416 107.04H41.9416C41.3816 108.52 39.9215 109.56 38.7015 109.56C38.2815 109.56 38.0615 109.16 38.2215 108.76L39.9415 104.04ZM33.1424 107.7C33.1424 106.241 34.7625 104.281 35.6625 104.281C35.8625 104.281 36.0625 104.301 36.2225 104.361L35.2825 106.88C34.7425 107.54 33.9025 108.34 33.5024 108.34C33.2824 108.34 33.1424 108.14 33.1424 107.7ZM37.603 102.821L38.103 102.861L36.363 106.861C35.943 107.82 36.123 108.26 36.363 108.26C36.603 108.26 36.903 107.98 37.223 107.52H37.523C37.063 108.54 36.463 109.56 35.803 109.56C35.243 109.56 34.903 108.96 35.003 107.88L35.043 107.5L34.9341 107.653C34.2176 108.654 33.5693 109.56 32.9029 109.56C32.3229 109.56 32.0229 109.2 32.0229 108.66C32.0229 106.341 34.563 103.381 36.943 103.381H37.043L37.603 102.821ZM33.0217 104.56C33.2417 103.8 33.1217 103.12 32.5417 103.12C31.8183 103.12 31.5918 103.598 30.8909 105.076L30.8417 105.18V104.3C30.8417 103.68 30.6417 103.12 30.0816 103.12C29.4216 103.12 28.8216 104.14 28.3616 105.16H28.6616C28.9816 104.7 29.2816 104.42 29.5016 104.42C29.7816 104.42 29.9416 104.86 29.5016 105.82L28.2216 108.68C27.9816 109.22 28.2416 109.56 28.7616 109.56C29.0816 109.56 29.2216 109.48 29.3616 109.14L30.6217 105.82C30.9817 105.38 31.3017 105 31.7017 104.58H33.0217V104.56ZM24.7801 108.959L24.6601 109.319H20L20.12 108.939C21.56 108.679 21.8 108.559 22.4 106.939L23.7001 103.459C24.2801 101.839 24.1601 101.719 22.9 101.459L23.02 101.099H29.0801L28.7201 103.039H28.2801C28.2801 101.879 28.1601 101.579 27.0601 101.579H26.7801C25.7001 101.579 25.5601 101.739 25.2601 102.579L24.4001 104.919H25.6601C26.5001 104.919 26.8201 104.399 27.2001 103.719H27.6401L26.6001 106.559H26.1601C26.2601 105.699 26.2601 105.359 25.4801 105.359H24.2201L23.6401 106.959C23.0131 108.624 23.1923 108.658 24.6852 108.941C24.7163 108.947 24.7479 108.953 24.7801 108.959Z" fill="black"/>
<path fill-rule="evenodd" clip-rule="evenodd" d="M28.7397 85.4009L26.8797 86.7409V86.7609H26.3997L27.4997 85.1609H28.7397V85.4009ZM41.7415 94.7807L44.7214 86.8608L44.6214 86.7408L42.5615 86.9808V87.2208L42.9615 87.5208C43.3029 87.7864 43.2125 88.034 42.9292 88.8099L42.8815 88.9408L40.6015 95.0207C40.4215 95.3807 40.6615 95.8207 41.0815 95.8207C42.0215 95.8207 43.0215 94.9607 43.4815 93.7808H43.1815C42.8615 94.2207 42.2215 94.7007 41.7415 94.7807ZM55.4 88.6808L57.26 86.9808V86.7408H56.02L54.92 88.6808H55.4ZM55.5187 93.5407H55.9187C55.1787 94.9607 54.2587 95.8207 53.3787 95.8207C52.6187 95.8207 52.1387 95.2607 52.1387 94.2407C52.1387 92.0807 53.8987 89.3808 55.4387 89.3808C56.3187 89.3808 57.0987 90.0407 56.4587 91.5607L53.1787 92.6407C53.1187 92.9207 53.0787 93.2407 53.0787 93.5407C53.0787 94.2807 53.3587 94.6207 53.9187 94.6207C54.4587 94.6207 55.0187 94.1407 55.5187 93.5407ZM55.4177 91.3808C55.6177 90.6208 55.2377 90.2808 54.7977 90.2808C54.3377 90.2808 53.7377 90.9808 53.3977 91.9208L55.4177 91.3808ZM49.5377 90.3203H48.4577V89.8203L49.7977 89.6403L50.9177 87.9403H51.5377L50.9377 89.6403H52.5177L52.3177 90.3203H50.6977L49.1177 94.7403C49.8377 94.6203 50.7977 93.9403 51.2377 93.3203H51.5377C50.9777 94.8003 49.5177 95.8403 48.2977 95.8403C47.8777 95.8403 47.6577 95.4403 47.8177 95.0403L49.5377 90.3203ZM47.3376 90.0803C47.4576 89.6403 47.1776 89.4003 46.9376 89.4003C45.9976 89.4003 44.8776 90.2603 44.4176 91.4403H44.7176C45.0176 91.0003 45.5376 90.5203 46.0376 90.4403L44.2376 95.1402C44.0776 95.5802 44.3976 95.8202 44.6176 95.8202C45.5176 95.8202 46.5576 94.9602 47.0176 93.7803H46.7176C46.4176 94.2203 45.8976 94.7002 45.3976 94.7802L47.3376 90.0803ZM48.2591 87.4808C48.2591 87.8808 47.9191 88.2208 47.5191 88.2208C47.1191 88.2208 46.7791 87.8808 46.7791 87.4808C46.7791 87.0808 47.0991 86.7408 47.5191 86.7408C47.9191 86.7408 48.2591 87.0808 48.2591 87.4808ZM38.1612 90.5608C37.2612 90.5608 35.6412 92.5207 35.6412 93.9807C35.6412 94.4207 35.7812 94.6207 36.0212 94.6207C36.4012 94.6207 37.2412 93.8207 37.7812 93.1607L38.7212 90.6408C38.5412 90.5808 38.3612 90.5608 38.1612 90.5608ZM40.6017 89.1408L40.1017 89.1008L39.5417 89.6608H39.4417C37.0617 89.6608 34.5217 92.6208 34.5217 94.9408C34.5217 95.4808 34.8217 95.8408 35.4017 95.8408C36.0681 95.8408 36.7164 94.9345 37.4328 93.9329L37.5417 93.7808L37.5017 94.1608C37.4017 95.2408 37.7417 95.8408 38.3017 95.8408C38.9617 95.8408 39.5617 94.8208 40.0217 93.8008H39.7217C39.4017 94.2608 39.1017 94.5408 38.8617 94.5408C38.6217 94.5408 38.4417 94.1008 38.8617 93.1408L40.6017 89.1408ZM30.5206 95.6209C29.6606 95.9609 29.0606 96.3609 29.0606 96.9809C29.0606 97.5609 29.6006 97.8009 30.7206 97.8009C32.2206 97.8009 33.0406 97.3609 33.0406 96.7809C33.0406 96.5209 32.7006 96.4009 31.8006 96.1009C31.2206 95.9209 30.8006 95.7609 30.5206 95.6209ZM31.5193 93.1609C31.1193 93.1609 30.9793 92.8209 30.9793 92.4609C30.9793 91.3009 31.5393 89.8609 32.4393 89.8609C32.8393 89.8609 32.9793 90.2009 32.9793 90.5609C32.9593 91.7409 32.3993 93.1609 31.5193 93.1609ZM32.2813 95.0407C33.3813 95.3807 34.0613 95.6407 34.0613 96.4007C34.0613 97.3807 32.2613 98.5407 30.0813 98.5207C28.8213 98.5207 27.7413 98.1807 27.7413 97.3607C27.7413 96.5807 28.4613 95.9407 30.2213 95.4207C29.9813 95.2607 29.8813 95.0607 29.8813 94.7807C29.8813 94.3007 30.3213 93.9207 31.0813 93.5607C30.3413 93.4607 29.8613 92.9007 29.8613 92.0807C29.8613 90.8207 30.9013 89.3808 32.5413 89.3808C32.8813 89.3808 33.1813 89.4608 33.4213 89.6207H35.2213L35.0213 90.3007H33.9613C34.0213 90.4807 34.0613 90.6807 34.0613 90.9007C34.0613 92.1207 33.0813 93.5207 31.5213 93.6007C31.1213 93.8207 30.9213 94.1207 30.9213 94.3607C30.9213 94.6431 31.2485 94.7386 31.9715 94.9496C32.0677 94.9777 32.1709 95.0078 32.2813 95.0407ZM25.94 91.6209C26.72 91.6209 26.74 91.9609 26.62 92.8209H27.06L28.1 89.9809H27.66C27.28 90.6609 26.96 91.1809 26.12 91.1809H24.4L25.24 88.8409C25.54 88.0009 25.68 87.8409 26.76 87.8409H27.52C28.62 87.8409 28.74 88.1409 28.74 89.3009H29.18L29.54 87.3609H23.02L22.9 87.7209C24.16 87.9809 24.28 88.1009 23.7 89.7209L22.4 93.2209C21.8 94.8409 21.56 94.9609 20.1 95.2209L20 95.6009H27.24L28.54 93.5409H28.04C27.2 94.3609 26.36 95.1209 24.72 95.1209C22.9161 95.1209 22.9482 95.0326 23.4895 93.5457C23.5243 93.45 23.5613 93.3485 23.6 93.2409L24.2 91.6409H25.94V91.6209Z" fill="black"/>
<path fill-rule="evenodd" clip-rule="evenodd" d="M31.9182 74.4809C32.3182 74.4809 32.6582 74.1409 32.6582 73.7409C32.6582 73.341 32.3182 73.001 31.9182 73.001C31.4982 73.001 31.1782 73.341 31.1782 73.7409C31.1782 74.1609 31.4982 74.4809 31.9182 74.4809ZM37.8403 77.0001C37.8403 76.0402 37.6003 75.6802 36.9203 75.6802C36.0803 75.6802 35.3003 76.5802 34.5203 77.6601L36.2003 73.1604L36.1003 73.0204L34.0403 73.2604V73.5004L34.4403 73.8004C34.7886 74.0712 34.6876 74.3421 34.391 75.138L34.3603 75.2203L32.5403 79.9799C32.3803 80.3799 32.2003 80.8598 32.2003 80.9798C32.2003 81.5398 32.9603 82.0797 33.6603 82.0797C35.2203 82.0997 37.8403 79.22 37.8403 77.0001ZM55.18 74.9603L57.04 73.2604V73.0204H55.8L54.7 74.9603H55.18ZM55.3005 79.82H55.7005C54.9405 81.2398 54.0205 82.0998 53.1405 82.0798C52.3805 82.0798 51.9005 81.5398 51.9005 80.5199C51.9005 78.3601 53.6605 75.6603 55.2005 75.6603C56.0805 75.6603 56.8605 76.3202 56.2205 77.8401L52.9605 78.92C52.9005 79.2 52.8605 79.52 52.8605 79.82C52.8605 80.5599 53.1405 80.8999 53.7005 80.8999C54.2405 80.8999 54.8005 80.4199 55.3005 79.82ZM55.1986 77.6602C55.3985 76.9002 55.0186 76.5603 54.5786 76.5603C54.0986 76.5603 53.4986 77.2602 53.1786 78.2001L55.1986 77.6602ZM49.2964 76.6014H48.2164V76.1014L49.5564 75.9215L50.6764 74.2216H51.2964L50.6964 75.9215H52.2764L52.0764 76.6014H50.4564L48.8764 81.0211C49.5964 80.9011 50.5564 80.2211 50.9964 79.6012H51.2964C50.7364 81.0811 49.2764 82.121 48.0564 82.121C47.6364 82.121 47.4164 81.721 47.5764 81.321L49.2964 76.6014ZM47.6602 77.1213C47.8802 76.3614 47.7602 75.6814 47.1802 75.6814C46.4569 75.6814 46.2304 76.1591 45.5295 77.6375L45.4802 77.7413V76.8613C45.4802 76.2414 45.2802 75.6814 44.7202 75.6814C44.0603 75.6814 43.4603 76.7014 43.0003 77.7213H43.3003C43.6203 77.2613 43.9203 76.9813 44.1403 76.9813C44.4203 76.9813 44.5803 77.4213 44.1403 78.3812L42.8603 81.221C42.6203 81.761 42.8803 82.1009 43.4003 82.1009C43.7203 82.1009 43.8603 82.0209 44.0003 81.681L45.2602 78.3612C45.6202 77.9213 45.9402 77.5413 46.3402 77.1213H47.6602ZM41.3208 77.6602C41.5208 76.9002 41.1408 76.5603 40.7008 76.5603C40.2208 76.5603 39.6408 77.2602 39.3008 78.2001L41.3208 77.6602ZM41.8195 79.82H41.4195C40.9195 80.4199 40.3595 80.8999 39.8195 80.8999C39.2595 80.8999 38.9796 80.5599 38.9796 79.82C38.9796 79.52 39.0196 79.2 39.0795 78.92L42.3395 77.8401C42.9795 76.3202 42.2195 75.6603 41.3195 75.6603C39.7795 75.6603 38.0196 78.3601 38.0196 80.5199C38.0196 81.5398 38.4996 82.0798 39.2595 82.0798C40.1395 82.0998 41.0595 81.2398 41.8195 79.82ZM33.4211 80.5806C33.4211 80.8406 33.8811 81.1406 34.2011 81.1406C35.5011 81.1406 36.7211 78.8007 36.7011 77.5008C36.7011 77.0609 36.4811 76.8809 36.1811 76.8809C35.7011 76.8809 34.8211 77.6008 34.2611 78.2808L33.7411 79.6807C33.5611 80.1406 33.4211 80.5006 33.4211 80.5806ZM31.3215 75.6814C31.5615 75.6814 31.8415 75.9214 31.7215 76.3614L29.8015 81.061C30.3015 80.981 30.8215 80.5011 31.1215 80.0611H31.4215C30.9615 81.241 29.9215 82.1009 29.0215 82.1009C28.7815 82.1009 28.4615 81.861 28.6215 81.421L30.4215 76.7214C29.9215 76.8013 29.4015 77.2813 29.1015 77.7213H28.8015C29.2615 76.5414 30.3815 75.6814 31.3215 75.6814ZM23.02 73.6015H27.3199L27.1999 73.9815C25.7399 74.2415 25.4999 74.3615 24.8999 75.9813L23.6199 79.5011C23 81.1809 23.16 81.3809 24.2599 81.3809C25.619 81.3809 26.5101 80.3932 27.2882 79.5308C27.346 79.4667 27.4032 79.4033 27.4599 79.3411H27.9599L26.5399 81.8609H20L20.12 81.5009C21.56 81.2409 21.8 81.1209 22.4 79.5011L23.6999 75.9613C24.2799 74.3415 24.1599 74.2215 22.9 73.9615L23.02 73.6015Z" fill="black"/>
</svg>
