<svg width="96" height="48" viewBox="0 0 96 48" fill="none" xmlns="http://www.w3.org/2000/svg">
<g clip-path="url(#clip0_374_1836)">
<path d="M29.2956 0H17.8557C17.8939 0.0127467 17.9304 0.0298133 17.9648 0.0508799L18.2526 0.2048C18.4056 0.27632 18.5369 0.387413 18.633 0.526613C18.6723 0.587627 18.7332 0.70848 18.6926 0.78864C18.652 0.890347 18.633 1.05061 18.5316 1.09136C18.3982 1.14587 18.2519 1.16005 18.1106 1.13205C18.0285 1.12837 17.9472 1.11472 17.8684 1.09136C18.1702 1.21216 18.4517 1.35339 18.652 1.63573C18.6723 1.67643 18.7535 1.6968 18.8333 1.6968C18.8536 1.6968 18.8536 1.73621 18.8536 1.75659C18.8131 1.79728 18.7738 1.81765 18.7928 1.87744H18.8536C18.9538 1.83669 18.9335 1.63573 19.0743 1.6968C19.1236 1.7272 19.1594 1.77536 19.1745 1.83136C19.1895 1.88741 19.1828 1.94709 19.1554 1.99824C19.0798 2.07157 18.9989 2.1392 18.9132 2.20048C18.9038 2.22283 18.899 2.24683 18.899 2.27109C18.899 2.29531 18.9038 2.31936 18.9132 2.34171C18.9642 2.41392 18.9988 2.49637 19.0147 2.58336C19.0743 2.72453 19.0946 2.88608 19.1554 3.02597C19.2503 3.31925 19.2979 3.62587 19.2962 3.93419C19.2962 4.09445 19.215 4.23563 19.2759 4.39717C19.329 4.54816 19.4032 4.69083 19.4965 4.82075C19.5768 4.92315 19.6506 5.03061 19.7172 5.14256C19.8376 5.3448 20.0595 5.54576 19.9594 5.78869C19.8984 5.92987 19.6779 5.91589 19.5371 5.98965C19.4166 6.09013 19.5168 6.25168 19.5764 6.35216C19.6779 6.53408 19.4559 6.65488 19.3152 6.71595C19.3558 6.77573 19.442 6.75536 19.4559 6.79611C19.4762 6.89659 19.5764 6.95765 19.5168 7.05813C19.4357 7.17893 19.1947 7.24 19.3152 7.42064C19.3964 7.56181 19.3444 7.71824 19.2962 7.86453C19.2656 7.94133 19.2165 8.00923 19.1532 8.06208C19.0898 8.11493 19.0143 8.15109 18.9335 8.16725C18.8099 8.20315 18.6797 8.20965 18.5531 8.18635C18.5144 8.16363 18.471 8.15013 18.4263 8.14693C18.0852 8.10619 17.7429 8.00571 17.4018 8.00571C17.3051 8.0208 17.2105 8.04773 17.1203 8.08587C17.0329 8.15056 16.9515 8.22293 16.8768 8.30208L16.8338 8.3504L16.8071 8.38224C16.8071 8.38224 16.7957 8.39493 16.7906 8.40256C16.7322 8.47616 16.6792 8.55397 16.6321 8.63536L16.6232 8.65061L16.608 8.67861C16.5442 8.79616 16.4932 8.92021 16.4559 9.04875C16.3189 9.51045 16.3785 9.90603 16.4749 10.0027C16.5015 10.0294 17.138 10.2266 17.5819 10.4237C17.7458 10.4935 17.9046 10.5747 18.0573 10.6667H29.2905L29.2956 0Z" fill="#E1000F"/>
<path d="M18.5363 3.89089C18.6161 3.91126 18.7366 3.91126 18.7366 3.95196C18.6973 4.1135 18.4551 4.15292 18.3347 4.31446H18.2751C18.2142 4.35516 18.2345 4.45569 18.1736 4.45569C18.113 4.44214 18.0496 4.44934 17.9936 4.47601C18.0294 4.52065 18.0758 4.55564 18.1285 4.57782C18.1811 4.60001 18.2385 4.60876 18.2953 4.60321C18.3121 4.60945 18.3268 4.62044 18.3373 4.63494C18.3479 4.6494 18.3541 4.66668 18.3549 4.6846C18.3705 4.6831 18.3849 4.67585 18.3955 4.66428C18.4158 4.66428 18.4361 4.66428 18.4361 4.6846V4.76476C18.3752 4.84486 18.2751 4.80545 18.1939 4.82454C18.3455 4.86529 18.5051 4.86529 18.6567 4.82454C18.7835 4.78513 18.6567 4.58284 18.7366 4.48236C18.6973 4.48236 18.7366 4.42257 18.6973 4.42257C18.7366 4.38188 18.7772 4.32086 18.8177 4.29542C18.8412 4.29606 18.8644 4.291 18.8854 4.28054C18.9064 4.27014 18.9245 4.25468 18.9382 4.23564C18.9382 4.19489 18.8571 4.17457 18.8774 4.13516C18.9978 4.05372 19.098 3.93286 19.0587 3.81206C19.0384 3.75228 18.8774 3.75228 18.7772 3.71158C18.6637 3.68833 18.5461 3.69537 18.4361 3.7319C18.3332 3.74892 18.2321 3.77574 18.1343 3.81206C17.9977 3.85905 17.8694 3.92732 17.7539 4.0143C17.8973 3.96001 18.0449 3.9175 18.1952 3.8871C18.3086 3.87382 18.4232 3.87516 18.5363 3.89089Z" fill="#9D9D9C"/>
<path d="M12.1408 9.41253C12.2549 9.29803 12.3703 9.17595 12.4857 9.05253C12.6922 8.80784 12.916 8.57829 13.1552 8.36571C13.2246 8.30261 13.2978 8.244 13.3746 8.19013C13.3936 8.17109 13.3936 8.1304 13.4139 8.11003C13.3137 8.15072 13.2528 8.23723 13.1527 8.27157C13.1324 8.27157 13.1134 8.2512 13.1324 8.23088L13.3479 8.06933H13.334C13.3137 8.06933 13.3137 8.05024 13.3137 8.02987C13.0525 7.98917 12.8509 8.17109 12.6709 8.33136C12.6303 8.35168 12.5897 8.31227 12.5706 8.31227C12.2689 8.41275 12.0482 8.67477 11.7465 8.79563V8.75109C11.626 8.79179 11.5081 8.86432 11.3851 8.89227C11.2174 8.91925 11.0472 8.92608 10.8779 8.91264C10.6322 8.94085 10.3883 8.98331 10.1475 9.03984H10.1272C9.99464 9.07424 9.86685 9.12507 9.74685 9.1912L9.73288 9.19883C9.72424 9.21077 9.7149 9.22224 9.70498 9.23317C9.66739 9.28395 9.62045 9.32715 9.5668 9.36037C9.44685 9.43589 9.33512 9.52368 9.2333 9.6224C9.22424 9.62933 9.21304 9.63296 9.20162 9.63259C9.09384 9.73685 8.98733 9.84118 8.87698 9.94293C8.8581 9.95216 8.83672 9.95483 8.81613 9.95056C8.81992 9.94389 8.82413 9.93755 8.82882 9.93147C8.84531 9.90224 8.86179 9.87424 8.87955 9.84624C8.89731 9.81829 8.91885 9.78395 8.93912 9.75211C8.95944 9.72032 8.99491 9.66944 9.02536 9.62491C9.02882 9.62139 9.0308 9.61659 9.0308 9.61158C9.0308 9.60656 9.02882 9.60176 9.02536 9.59824C9.01773 9.59131 9.00771 9.58763 8.99747 9.58805C9.10019 9.49104 9.21331 9.40576 9.33475 9.33365C9.32077 9.33365 9.30179 9.33365 9.31192 9.31456C9.32205 9.29547 9.33474 9.27771 9.34616 9.25861L9.35378 9.2408L9.33853 9.22555C9.30488 9.24464 9.27309 9.26678 9.24344 9.29168C9.19528 9.33494 9.1572 9.41888 9.08493 9.41888H9.05453C9.0468 9.41808 9.03944 9.41547 9.03299 9.41125C9.03587 9.40507 9.03922 9.39909 9.04312 9.39344L9.05197 9.37691L9.0596 9.36288L9.07352 9.33749L9.08493 9.3184C9.09256 9.30315 9.10141 9.28912 9.11032 9.27387L9.12301 9.25227L9.14456 9.21664C9.15469 9.19883 9.14456 9.18608 9.12931 9.17974C9.16627 9.13083 9.21288 9.09013 9.26626 9.06016C9.34237 9.02075 9.41971 8.97371 9.49704 8.93296L9.53 8.90373C9.41704 8.94251 9.30962 8.99595 9.21048 9.06272C9.19832 9.06715 9.1868 9.07312 9.17624 9.08053C9.16696 9.08261 9.1573 9.08208 9.14834 9.07893C9.13938 9.07579 9.13144 9.07013 9.12552 9.06272C9.12403 9.05776 9.12403 9.05243 9.12552 9.04747C9.14579 9.00677 9.20541 8.9864 9.25234 8.94699C9.27261 8.94699 9.29165 8.94699 9.29165 8.96731C9.93576 8.45856 10.8132 8.58576 11.5626 8.32245L11.7439 8.19525C11.8441 8.15584 11.924 8.05531 12.0457 7.99429C12.2076 7.88176 12.3276 7.71845 12.3868 7.53003C12.3844 7.51504 12.3773 7.50123 12.3665 7.49056C12.1128 7.76395 11.8122 7.98928 11.4789 8.15584C11.0567 8.37712 10.5913 8.33643 10.1526 8.39749C10.1729 8.3568 10.2122 8.3568 10.2528 8.3568C10.2528 8.29701 10.2934 8.27664 10.3339 8.23595H10.3935C10.4138 8.23595 10.4138 8.19525 10.4341 8.19525C10.4734 8.19525 10.5343 8.17616 10.514 8.17616C10.4544 8.09477 10.3339 8.23595 10.2325 8.17616C10.273 8.13547 10.2528 8.0744 10.2934 8.05531H10.3733C10.3775 8.02448 10.3918 7.99589 10.4138 7.97392C10.7156 7.79205 10.9971 7.65211 11.2773 7.49056C11.2177 7.49056 11.1771 7.55035 11.1175 7.51093C11.1568 7.51093 11.1175 7.44987 11.1568 7.44987C11.3787 7.39008 11.5588 7.268 11.7807 7.18784C11.6995 7.18784 11.64 7.24891 11.5588 7.18784C11.5994 7.16752 11.6197 7.12805 11.6856 7.12805V7.06704C11.6856 7.04667 11.7059 7.04667 11.7262 7.04667C11.7108 7.04453 11.6966 7.03739 11.6856 7.02629C11.7059 6.98688 11.7667 7.00597 11.8124 6.96651C11.7934 6.96651 11.7528 6.96651 11.7528 6.94619C11.8219 6.87488 11.915 6.83179 12.014 6.82533C11.9937 6.78464 11.9329 6.82533 11.9329 6.78464C11.9329 6.76427 11.9531 6.76427 11.9734 6.76427H11.9329C11.8936 6.74395 11.9138 6.70453 11.9138 6.68416C12.0407 6.54299 12.0407 6.36107 12.0939 6.2008C12.0736 6.2008 12.0546 6.2008 12.0546 6.18048C11.853 6.40176 11.5322 6.48192 11.2304 6.56203H11.1214C11.0661 6.58325 11.007 6.59243 10.948 6.58891C10.8889 6.58539 10.8313 6.56933 10.779 6.54171C10.7062 6.49184 10.6383 6.4352 10.5761 6.37253C10.4171 6.27216 10.2469 6.19104 10.0689 6.13083C9.56962 5.9672 9.04568 5.89227 8.52067 5.90955C8.74259 5.78235 8.98605 5.78235 9.2244 5.70731C9.56552 5.60683 9.8876 5.48597 10.249 5.50635C10.1826 5.49616 10.115 5.49616 10.0486 5.50635C9.76712 5.48597 9.48563 5.56608 9.18386 5.63349C8.98349 5.67296 8.80344 5.75435 8.60184 5.79504C8.48136 5.83451 8.42051 5.95531 8.27976 5.93627V5.8752C8.48136 5.63349 8.72232 5.39184 9.04056 5.3664C9.40322 5.30533 9.74429 5.3664 10.1057 5.40581C10.3624 5.43387 10.6167 5.48107 10.8665 5.54704C10.9679 5.54704 10.9933 5.70859 11.0681 5.72891C11.1949 5.7696 11.309 5.72891 11.4295 5.80907C11.4295 5.7696 11.4092 5.72891 11.4295 5.68821C11.5106 5.60805 11.6108 5.70859 11.6907 5.66784C11.8517 5.56736 11.5499 5.38677 11.4701 5.24555C11.4722 5.23013 11.4793 5.21584 11.4903 5.20485C11.6501 5.34603 11.7718 5.50757 11.9722 5.60805C12.0723 5.6488 12.3133 5.70859 12.2739 5.58773C12.1738 5.3664 11.9722 5.18453 11.8111 4.98352V4.90213C11.7718 4.90213 11.7718 4.88181 11.7515 4.86272V4.78128C11.6704 4.74059 11.6907 4.66048 11.6501 4.60069C11.5905 4.49893 11.6311 4.35776 11.5905 4.23691C11.5537 4.12549 11.527 4.01099 11.5106 3.89472C11.4637 3.55003 11.3825 3.24859 11.3369 2.92549C11.2963 2.54395 11.5575 2.23995 11.7389 1.89776C11.8697 1.63888 12.0633 1.41712 12.3018 1.25291C12.3808 1.01291 12.5105 0.792906 12.6823 0.608C12.8562 0.428746 13.0681 0.290934 13.3023 0.2048C13.4785 0.126774 13.6589 0.0584 13.8425 0H0.0517578V10.6667H9.81533C10.1957 10.3907 10.5761 10.2596 11.1137 9.99509C11.3686 9.8704 11.9455 9.60587 12.1408 9.41253ZM9.05453 7.96501C9.01522 7.96501 8.9277 7.98539 8.95432 7.94469C8.97464 7.84416 9.11539 7.84416 9.19528 7.80347C9.23581 7.78315 9.29544 7.74368 9.33603 7.76405C9.37656 7.82384 9.43619 7.80347 9.47677 7.84416C9.35251 7.96501 9.19144 7.90523 9.05453 7.96501ZM5.97709 7.52112C5.966 7.51072 5.95885 7.49675 5.95682 7.48165C6.20354 7.16064 6.41885 6.81648 6.59965 6.45392C6.85464 6.30304 7.08408 6.11243 7.27933 5.88917C7.59602 5.52512 7.97741 5.2232 8.40403 4.99883C8.57517 4.94469 8.7597 4.95141 8.92642 5.01787C8.86685 5.09931 8.76541 5.07893 8.68552 5.14507C8.67464 5.1464 8.66354 5.14544 8.65304 5.14213C8.64253 5.13883 8.63288 5.13333 8.62466 5.12603C8.63235 5.11797 8.63816 5.10832 8.64168 5.09776C8.6452 5.0872 8.64632 5.076 8.64493 5.06496C8.44461 5.28629 8.16312 5.38805 8.0021 5.65003C7.88541 5.85104 7.80552 6.10544 7.54434 6.17157C7.46317 6.19189 7.56461 6.11051 7.52403 6.13083C6.89891 6.51371 6.45891 6.97797 5.97709 7.52112ZM7.64451 6.19189C7.62424 6.23136 7.60264 6.23643 7.58365 6.27205C7.56845 6.30821 7.53981 6.33696 7.50376 6.35216C7.48349 6.35216 7.46317 6.35216 7.46317 6.33184C7.47293 6.29067 7.49277 6.25259 7.52088 6.22107C7.54899 6.18949 7.5845 6.16549 7.62424 6.1512C7.6445 6.1512 7.64451 6.17157 7.64451 6.19189ZM8.57773 9.21152C8.56573 9.23445 8.54883 9.2544 8.52829 9.27003C8.55368 9.27003 8.57139 9.28661 8.55491 9.30187C8.51208 9.34725 8.46024 9.3832 8.40275 9.40741C8.39224 9.40891 8.38157 9.40891 8.37107 9.40741C8.34696 9.43157 8.32163 9.45451 8.29624 9.47739C8.27091 9.50027 8.16184 9.47739 8.19608 9.45323C8.23032 9.42907 8.29373 9.35909 8.34445 9.31328C8.37235 9.28661 8.40275 9.2624 8.42813 9.23317C8.44051 9.21611 8.45496 9.20075 8.47122 9.18736C8.4877 9.18101 8.59421 9.17211 8.57773 9.21152ZM8.21763 9.04491C8.14285 9.09835 8.06802 9.15179 7.98813 9.19755C7.90824 9.24336 7.81187 9.28661 7.72312 9.32475C7.71928 9.31952 7.71373 9.31589 7.70744 9.31445C7.70115 9.31307 7.69453 9.31403 7.68888 9.31712C7.6149 9.35883 7.54707 9.41067 7.48728 9.47104C7.47736 9.47968 7.46803 9.48907 7.45939 9.49899L7.43149 9.52699C7.41752 9.54096 7.4036 9.55499 7.38712 9.57403C7.38029 9.58517 7.37122 9.59467 7.36045 9.60203C7.34781 9.60965 7.31357 9.60965 7.31736 9.58677L7.28184 9.60459C7.27091 9.60976 7.26029 9.61568 7.25016 9.6224C7.24563 9.62107 7.24077 9.62107 7.23618 9.6224C7.2317 9.62064 7.22674 9.62064 7.22226 9.6224C7.19688 9.64144 7.17283 9.66181 7.14872 9.68347C7.10659 9.72235 7.06797 9.76491 7.03336 9.81061L7.02701 9.81829V9.82715L7.01304 9.84624C7.0085 9.85077 7.0028 9.85387 6.99656 9.85515L6.98893 9.84245C6.98653 9.83925 6.98445 9.83584 6.98264 9.83227C6.98264 9.82208 6.97123 9.81189 6.96611 9.80048C6.96568 9.79707 6.96568 9.79365 6.96611 9.79029C6.98771 9.76741 7.00797 9.7432 7.02952 9.71776L7.04984 9.69232L7.05106 9.66688L7.06248 9.65163C7.0853 9.6224 7.10562 9.5944 7.12589 9.5664L7.13475 9.55371C7.14493 9.53973 7.15378 9.52443 7.16269 9.51045C7.17059 9.49728 7.17779 9.48373 7.18424 9.46976V9.46213L7.20323 9.41504C7.20274 9.4104 7.20274 9.40571 7.20323 9.40107C7.20285 9.39387 7.20285 9.38667 7.20323 9.37947L7.21085 9.35019C7.21187 9.348 7.2124 9.3456 7.2124 9.3432C7.2124 9.3408 7.21187 9.3384 7.21085 9.33622C7.23395 9.29723 7.26067 9.26064 7.29075 9.22683L7.28184 9.23317C7.25272 9.25099 7.23368 9.27771 7.20706 9.29675C7.1804 9.31584 7.14493 9.28661 7.17026 9.26752C7.18637 9.25451 7.20157 9.24048 7.21592 9.22555C7.24792 9.18944 7.28221 9.15541 7.31864 9.12379C7.34146 9.10725 7.36173 9.092 7.37949 9.07669C7.38306 9.07445 7.3861 9.07141 7.38834 9.06779C7.40253 9.04997 7.41779 9.03296 7.434 9.01691C7.62547 8.82997 7.95011 8.83888 8.2037 8.72059C8.30387 8.67984 8.42434 8.73963 8.5245 8.72059C8.58754 8.71456 8.6509 8.72832 8.70584 8.76C8.54733 8.82997 8.38248 8.94187 8.21763 9.04491ZM8.62845 7.64576C8.60946 7.62539 8.68936 7.64576 8.70963 7.60507H8.54733C8.52701 7.60507 8.52701 7.58469 8.52701 7.56437C8.42685 7.58469 8.30637 7.62539 8.20621 7.64576C8.06546 7.68517 7.94504 7.78565 7.78397 7.8264C7.56333 7.90779 7.38205 8.08843 7.14109 8.16981C7.12082 8.16981 7.12083 8.14944 7.12083 8.12912C7.14109 8.06805 7.22098 8.04896 7.26157 7.98789C7.26157 7.96757 7.26157 7.9472 7.2413 7.9472C7.40232 7.72587 7.62168 7.60507 7.82456 7.42315V7.36336C7.88413 7.28197 7.98434 7.24256 8.02488 7.1408C8.06605 7.05653 8.13843 6.99173 8.22653 6.96016C8.20621 6.93984 8.16563 6.93984 8.16563 6.89909C8.08579 6.89909 8.00461 6.93984 7.92472 6.87877C7.96029 6.84464 8.00392 6.82011 8.05154 6.80752C8.03314 6.80395 8.01683 6.79349 8.00589 6.77829C7.98557 6.7376 8.0452 6.69307 8.10605 6.67781C8.18722 6.65744 8.28738 6.65744 8.34824 6.59637C8.20749 6.57733 8.04648 6.63712 7.90573 6.55696C7.99213 6.29792 8.17346 6.08155 8.41293 5.95152C8.4332 5.95152 8.47379 5.95152 8.47379 5.97184C8.47549 6.01931 8.46019 6.06581 8.43064 6.10293C8.40109 6.14005 8.35928 6.16528 8.31272 6.17408C8.47768 6.19445 8.63949 6.23504 8.79458 6.29493C8.77426 6.33435 8.73496 6.31531 8.71469 6.31531C8.81485 6.37509 8.93533 6.33435 9.03549 6.41579C8.97592 6.47557 8.90872 6.41579 8.85544 6.41579C9.478 6.59637 10.1412 6.7376 10.6636 7.1408C10.2223 7.34272 9.75629 7.48517 9.27768 7.56437C9.22322 7.56773 9.16856 7.56085 9.11666 7.544C9.11666 7.56437 9.11666 7.60507 9.09634 7.60507C9.02696 7.59669 8.95672 7.61099 8.89602 7.64576C8.8556 7.6704 8.80915 7.6832 8.76189 7.68277C8.71459 7.68229 8.6684 7.66864 8.62845 7.6432V7.64576Z" fill="#000091"/>
<path d="M4.2784 22.2011C2.744 22.2011 1.6352 21.0475 1.6352 19.5467C1.6352 18.0459 2.688 16.8923 4.1664 16.8923C5.0624 16.8923 5.768 17.3291 6.216 17.9675L7.4704 16.9931C6.7536 16.0411 5.5888 15.4027 4.1664 15.4027C1.6912 15.4027 0 17.3067 0 19.5467C0 21.7867 1.736 23.6907 4.2784 23.6907C5.7456 23.6907 6.9664 23.0635 7.6944 22.0891V18.7515H4.1104V20.1963H6.104V21.5179C5.656 21.9435 5.0176 22.2011 4.2784 22.2011ZM13.045 15.4027C10.5698 15.4027 8.87861 17.3067 8.87861 19.5467C8.87861 21.7867 10.5698 23.6907 13.045 23.6907C15.509 23.6907 17.2002 21.7867 17.2002 19.5467C17.2002 17.3067 15.509 15.4027 13.045 15.4027ZM13.045 22.2011C11.5666 22.2011 10.5138 21.0475 10.5138 19.5467C10.5138 18.0459 11.5666 16.8923 13.045 16.8923C14.5122 16.8923 15.565 18.0459 15.565 19.5467C15.565 21.0475 14.5122 22.2011 13.045 22.2011ZM23.3481 20.5323C23.3481 21.5851 22.7432 22.2011 21.7689 22.2011C20.7721 22.2011 20.1785 21.5851 20.1785 20.5323V15.6267H18.5881V20.3979C18.5881 22.4587 19.7977 23.6907 21.7577 23.6907C23.7289 23.6907 24.9384 22.4587 24.9384 20.3979V15.6267H23.3481V20.5323ZM25.9285 15.6267L28.8965 23.4667H30.9797L33.9477 15.6267H32.2565L29.9381 21.7531L27.6197 15.6267H25.9285ZM35.1584 23.4667H39.728V22.1115H36.7488V20.1515H39.28V18.7963H36.7488V16.9819H39.728V15.6267H35.1584V23.4667ZM41.576 23.4667H43.1664V20.2971H43.984L46.0672 23.4667H47.9712L45.5072 19.9947C46.3024 19.6139 46.7616 18.9083 46.7616 17.9675C46.7616 16.5115 45.6976 15.6267 43.9728 15.6267H41.576V23.4667ZM44.0624 16.9819C44.7344 16.9819 45.1264 17.3515 45.1264 17.9451C45.1264 18.5835 44.7344 18.9419 44.0624 18.9419H43.1664V16.9819H44.0624ZM48.9563 23.4667H50.5467V17.8331L54.0523 23.4667H56.0907V15.6267H54.5003V21.2379L50.9947 15.6267H48.9563V23.4667ZM58.2832 23.4667H62.8528V22.1115H59.8736V20.1515H62.4048V18.7963H59.8736V16.9819H62.8528V15.6267H58.2832V23.4667ZM64.7008 23.4667H66.2912V17.8891L68.0384 20.7787H69.1584L70.9056 17.8891V23.4667H72.496V15.6267H70.4912L68.5984 18.8523L66.7056 15.6267H64.7008V23.4667ZM74.6843 23.4667H79.2539V22.1115H76.2747V20.1515H78.8059V18.7963H76.2747V16.9819H79.2539V15.6267H74.6843V23.4667ZM81.1019 23.4667H82.6923V17.8331L86.1979 23.4667H88.2363V15.6267H86.6459V21.2379L83.1403 15.6267H81.1019V23.4667ZM89.6224 17.0715H92.0416V23.4667H93.632V17.0715H96.0512V15.6267H89.6224V17.0715Z" fill="black"/>
<path d="M25.5291 45.2613C25.7422 45.2613 25.9257 45.4229 25.8278 45.832L24.8363 46.0624C25.0086 45.6021 25.2948 45.2613 25.5241 45.2613H25.5291ZM26.0694 46.8565H25.8748C25.627 47.1499 25.3642 47.3803 25.1002 47.3803C24.8363 47.3803 24.6925 47.2197 24.6925 46.8565C24.6931 46.7093 24.7084 46.5632 24.7384 46.4192L26.3284 45.8955C26.6383 45.1584 26.2653 44.8363 25.8327 44.8363C25.0804 44.8363 24.2216 46.0971 24.2216 47.1984C24.2216 47.696 24.457 47.9643 24.8239 47.9643C25.2552 47.9643 25.7026 47.544 26.0632 46.8528L26.0694 46.8565ZM25.7484 44.5392L26.8639 43.4912V43.3669H26.2603L25.5725 44.5355L25.7484 44.5392ZM22.3167 45.2752H22.8446L22.0168 47.5728C21.9424 47.768 22.0465 47.9643 22.2473 47.9643C22.7232 47.9643 23.4928 47.4917 23.7617 46.8453H23.613C23.3999 47.0704 22.9934 47.3701 22.6426 47.4336L23.4122 45.2741H24.1992L24.2971 44.9456H23.5337L23.8262 44.1179H23.5226L22.9772 44.9456L22.3291 45.0379L22.3167 45.2752ZM21.604 45.1659C21.6199 45.1317 21.6273 45.0944 21.6259 45.0571C21.6244 45.0197 21.614 44.9829 21.5955 44.9504C21.5771 44.9179 21.5512 44.8901 21.5199 44.8699C21.4886 44.8491 21.4528 44.8363 21.4156 44.8325C20.9559 44.8325 20.4105 45.2464 20.1925 45.8272H20.3573C20.506 45.6144 20.7588 45.3787 20.9943 45.3376L20.1094 47.6336C20.092 47.6677 20.0834 47.7056 20.0842 47.7435C20.085 47.7819 20.0953 47.8192 20.1142 47.8523C20.1329 47.8853 20.1597 47.9136 20.192 47.9333C20.2242 47.9536 20.261 47.9659 20.299 47.968C20.7353 47.968 21.2459 47.5477 21.464 46.9733H21.3153C21.1653 47.1861 20.9125 47.4224 20.6783 47.4619L21.604 45.1659ZM21.7651 44.0144C21.8149 44.0149 21.8642 44.0053 21.9102 43.9861C21.9562 43.9669 21.998 43.9392 22.0333 43.904C22.0685 43.8688 22.0964 43.8267 22.1155 43.7808C22.1346 43.7349 22.1444 43.6853 22.1444 43.6352C22.1444 43.5344 22.1045 43.4379 22.0333 43.3664C21.9622 43.2949 21.8657 43.2549 21.7651 43.2549C21.6646 43.2549 21.5681 43.2949 21.497 43.3664C21.4259 43.4379 21.3859 43.5344 21.3859 43.6352C21.3851 43.6853 21.3943 43.7355 21.4131 43.7819C21.4319 43.8283 21.4598 43.8704 21.4952 43.9056C21.5306 43.9413 21.5728 43.9691 21.6191 43.9877C21.6655 44.0064 21.7152 44.0155 21.7651 44.0144ZM16.7086 47.5381C16.5946 47.7979 16.7086 47.9643 16.9676 47.9643C17.1225 47.9643 17.1907 47.9232 17.2539 47.7568L17.8624 46.1403C18.1438 45.7947 18.7238 45.4267 18.9531 45.4267C19.1192 45.4267 19.0968 45.5648 18.9878 45.7723L18.0632 47.5728C18.0414 47.6128 18.0303 47.6581 18.031 47.7035C18.0318 47.7493 18.0442 47.7941 18.0673 47.8336C18.0904 47.8731 18.1233 47.9056 18.1627 47.9285C18.2022 47.9515 18.2469 47.9637 18.2925 47.9643C18.7523 47.9643 19.2976 47.5493 19.5158 46.9696H19.3658C19.217 47.1824 18.9642 47.4187 18.7288 47.4581L19.5319 45.8299C19.6251 45.6576 19.6785 45.4672 19.688 45.2715C19.6942 45.2133 19.6876 45.1547 19.6686 45.0997C19.6496 45.0443 19.6187 44.9941 19.5781 44.9525C19.5375 44.9104 19.4882 44.8784 19.4337 44.8576C19.3792 44.8373 19.3209 44.8293 19.2629 44.8341C18.8663 44.8341 18.4648 45.2827 17.9889 45.8347V45.4096C17.9889 45.1035 17.891 44.8341 17.617 44.8341C17.4448 44.8341 17.2787 44.9829 17.1213 45.1957V45.2539C17.4187 45.2368 17.5514 45.6853 17.3394 46.1579L16.7086 47.5381ZM16.6975 45.5349C16.8065 45.1621 16.7495 44.8325 16.462 44.8325C16.1236 44.8325 16.0381 45.0912 15.6936 45.8336V45.408C15.6936 45.1024 15.5957 44.8325 15.3218 44.8325C15.0008 44.8325 14.7021 45.3301 14.484 45.8272H14.6327C14.7876 45.6021 14.9314 45.4704 15.0466 45.4704C15.1842 45.4704 15.2586 45.6832 15.0466 46.1552L14.427 47.5365C14.3129 47.7963 14.427 47.9632 14.686 47.9632C14.8409 47.9632 14.9091 47.9221 14.9723 47.7552L15.5808 46.1392C15.7531 45.9269 15.908 45.7413 16.1038 45.5349H16.6975ZM13.174 45.2576C13.3859 45.2576 13.5706 45.4192 13.4727 45.8283L12.4812 46.0587C12.6535 45.5984 12.941 45.2576 13.1703 45.2576H13.174ZM13.7156 46.8528H13.5408C13.293 47.1461 13.0302 47.3765 12.7663 47.3765C12.5023 47.3765 12.3598 47.216 12.3598 46.8528C12.3597 46.7056 12.3751 46.5589 12.4056 46.4155L13.9944 45.8917C14.3043 45.1547 13.9312 44.8325 13.4987 44.8325C12.7477 44.8325 11.8875 46.0933 11.8875 47.1947C11.8875 47.6923 12.123 47.9605 12.4899 47.9605C12.9199 47.9605 13.3686 47.5403 13.7292 46.8491L13.7156 46.8528ZM9.98269 45.2789H10.5106L9.67282 47.5728C9.59848 47.768 9.70136 47.9643 9.9021 47.9643C10.3793 47.9643 11.1415 47.4917 11.4178 46.8453H11.2679C11.0559 47.0704 10.6482 47.3701 10.2987 47.4336L11.0622 45.2789H11.8491L11.9458 44.9509H11.1861L11.4786 44.1227H11.1762L10.6309 44.9509L9.98269 45.0427V45.2789ZM7.08509 47.0752C7.08509 46.368 7.8708 45.4069 8.31325 45.4069C8.40402 45.4059 8.49442 45.4176 8.58221 45.4405L8.12365 46.6677C7.85965 46.9899 7.45192 47.3813 7.25608 47.3813C7.14701 47.3813 7.07885 47.2891 7.07885 47.0752H7.08509ZM9.49437 44.7131L9.25394 44.696L8.98376 44.9605H8.92674C7.618 44.9605 6.48771 46.4352 6.48771 47.5056C6.48205 47.5691 6.49026 47.6325 6.51186 47.6928C6.53341 47.7525 6.56781 47.8069 6.61261 47.8517C6.65741 47.8971 6.71149 47.9317 6.77106 47.9531C6.83064 47.9749 6.89421 47.9835 6.95741 47.9781C7.29698 47.9781 7.62914 47.4944 8.00216 46.976L7.98482 47.16C7.93896 47.6896 8.10008 47.9781 8.37522 47.9781C8.69624 47.9781 8.9949 47.4805 9.21304 46.9835H9.06429C8.9156 47.2 8.77181 47.3243 8.65656 47.3243C8.5413 47.3243 8.45085 47.1051 8.65656 46.6389L9.49437 44.7131ZM6.70584 45.5488C6.8149 45.176 6.75666 44.8464 6.47037 44.8464C6.13202 44.8464 6.04525 45.1051 5.70072 45.8469V45.4219C5.70072 45.1163 5.60402 44.8464 5.32893 44.8464C5.00792 44.8464 4.70925 45.3435 4.49112 45.8411H4.64109C4.79597 45.616 4.93853 45.4843 5.05378 45.4843C5.19133 45.4843 5.26568 45.6965 5.05378 46.1691L4.4341 47.5504C4.31885 47.8101 4.4341 47.9765 4.69186 47.9765C4.72562 47.9824 4.76018 47.9819 4.79352 47.9739C4.8269 47.9659 4.85837 47.9515 4.88605 47.9317C4.91378 47.9115 4.9372 47.8859 4.95496 47.8565C4.97266 47.8272 4.98434 47.7947 4.9893 47.7605L5.59784 46.144C5.7701 45.9317 5.92504 45.7467 6.1196 45.5403L6.70584 45.5488ZM2.31602 47.8523L2.37304 47.6747C1.60963 47.5307 1.50552 47.5307 1.81661 46.6949L2.12642 45.8373H2.97042C3.34845 45.8373 3.35464 45.9925 3.2964 46.408H3.51448L4.02013 45.0203H3.80205C3.6124 45.3488 3.4637 45.5899 3.04973 45.5899H2.21816L2.65933 44.3749C2.79816 43.9899 2.87746 43.9088 3.39426 43.9088H3.7661C4.29901 43.9088 4.36221 44.0533 4.36221 44.5941H4.57416L4.75261 43.6501H1.58109L1.51917 43.8283C2.13261 43.9525 2.18962 44.0133 1.90333 44.808L1.21922 46.6949C0.932931 47.4843 0.811491 47.5477 0.103811 47.6747L0.0517578 47.8523H2.31602Z" fill="black"/>
<path d="M17.8451 38.0656C18.057 38.0656 18.2417 38.2272 18.1438 38.6352L17.1523 38.8661C17.3246 38.4053 17.6121 38.0656 17.8414 38.0656H17.8451ZM18.3867 39.6608H18.1921C17.9442 39.9541 17.6803 40.184 17.4163 40.184C17.1523 40.184 17.0098 40.0224 17.0098 39.6608C17.0103 39.5136 17.0256 39.3669 17.0557 39.2229L18.6445 38.6987C18.9543 37.9627 18.5813 37.6395 18.1487 37.6395C17.3977 37.6395 16.5376 38.8997 16.5376 40.0016C16.5376 40.4987 16.773 40.7659 17.1399 40.7659C17.5699 40.7659 18.0186 40.3456 18.3793 39.656L18.3867 39.6608ZM18.0632 37.3408L19.1786 36.2929V36.1686H18.5763L17.8872 37.3371L18.0632 37.3408ZM14.6315 38.0784H15.1594L14.3216 40.3755C14.2473 40.5707 14.3502 40.7659 14.5509 40.7659C15.0281 40.7659 15.7965 40.2949 16.0666 39.6469H15.9167C15.7047 39.872 15.297 40.1707 14.9475 40.2341L15.7159 38.0757H16.5153L16.6132 37.7477H15.8497L16.1422 36.9182H15.8374L15.292 37.7477L14.6439 37.8395L14.6315 38.0784ZM13.9201 37.9685C13.9359 37.9344 13.9433 37.8971 13.9418 37.8597C13.9402 37.8219 13.9297 37.7851 13.9112 37.7525C13.8926 37.72 13.8665 37.6923 13.8351 37.6715C13.8037 37.6507 13.7678 37.6384 13.7305 37.6341C13.2719 37.6341 12.7266 38.0496 12.5085 38.6288H12.6733C12.8233 38.4165 13.0749 38.1803 13.3103 38.1403L12.4254 40.4379C12.408 40.4715 12.3993 40.5093 12.4001 40.5477C12.4009 40.5856 12.4112 40.6229 12.4301 40.656C12.4489 40.6891 12.4757 40.7168 12.508 40.7371C12.5403 40.7573 12.5771 40.7691 12.6151 40.7712C13.0513 40.7712 13.5619 40.3509 13.78 39.7765H13.6301C13.4814 39.9904 13.2285 40.2267 12.993 40.2661L13.9201 37.9685ZM14.0812 36.8175C14.1562 36.8175 14.2295 36.7952 14.2919 36.7534C14.3543 36.7116 14.4029 36.6522 14.4315 36.5827C14.4603 36.5132 14.4678 36.4367 14.4531 36.3629C14.4385 36.2891 14.4024 36.2213 14.3494 36.1681C14.2963 36.1149 14.2288 36.0787 14.1552 36.064C14.0816 36.0493 14.0054 36.0568 13.9361 36.0856C13.8667 36.1144 13.8075 36.1632 13.7659 36.2258C13.7242 36.2883 13.7019 36.3619 13.7019 36.4371C13.7018 36.4871 13.7115 36.5367 13.7305 36.5829C13.7495 36.6291 13.7774 36.6711 13.8127 36.7065C13.8479 36.7419 13.8898 36.7699 13.9359 36.7889C13.9819 36.808 14.0313 36.8177 14.0812 36.8175ZM11.0386 40.2651L12.6398 36.0567L12.5878 35.9933L11.5839 36.1089V36.2332L11.7797 36.3824C11.9569 36.5204 11.9037 36.6534 11.7389 37.0799L10.4883 40.3808C10.4664 40.4208 10.4552 40.4656 10.4559 40.5115C10.4566 40.5573 10.4691 40.6021 10.4923 40.6411C10.5154 40.6805 10.5483 40.7131 10.5878 40.736C10.6273 40.7589 10.6721 40.7707 10.7176 40.7712C11.1762 40.7712 11.6645 40.3568 11.8826 39.7765H11.7326C11.5632 40.0139 11.3185 40.1867 11.0386 40.2661V40.2651ZM7.99725 39.8747C7.99725 39.1659 8.78296 38.2048 9.22541 38.2048C9.31666 38.2037 9.4076 38.2155 9.4956 38.24L9.03581 39.4656C8.77181 39.7888 8.36408 40.1792 8.1757 40.1792C8.06664 40.1792 7.99725 40.0875 7.99725 39.8747ZM10.4127 37.5125L10.1723 37.4949L9.9021 37.7515H9.84509C8.53634 37.7515 7.40605 39.2283 7.40605 40.2997C7.40056 40.3632 7.40898 40.4272 7.43069 40.4869C7.45245 40.5467 7.48696 40.6005 7.53186 40.6459C7.57677 40.6907 7.63096 40.7253 7.69058 40.7467C7.75021 40.7685 7.81384 40.7765 7.87704 40.7712C8.21533 40.7712 8.54872 40.2875 8.92179 39.7701L8.90445 39.9541C8.85859 40.4837 9.01848 40.7712 9.29357 40.7712C9.61581 40.7712 9.91325 40.2736 10.1326 39.7765H9.98269C9.82776 40.0016 9.68397 40.1333 9.56994 40.1333C9.45592 40.1333 9.36301 39.9147 9.56994 39.448L10.4127 37.5125ZM4.57042 41.3307C4.57042 41.0245 4.86413 40.8331 5.28306 40.6677C5.48429 40.76 5.69128 40.8389 5.90274 40.904C6.33896 41.048 6.50504 41.1056 6.50504 41.2384C6.50504 41.5195 6.02914 41.736 5.3797 41.736C4.83565 41.736 4.57042 41.6203 4.57042 41.3328V41.3307ZM5.75896 39.4683C5.56936 39.4683 5.49496 39.3067 5.49496 39.1227C5.49496 38.6101 5.77011 37.8555 6.20141 37.8555C6.38979 37.8555 6.46541 38.0171 6.46541 38.2011C6.46541 38.7136 6.18904 39.4683 5.75896 39.4683ZM6.99832 41.0459C6.99832 40.6725 6.67112 40.5483 6.13699 40.3829C5.67843 40.2453 5.47144 40.2053 5.47144 40.0549C5.47144 39.9307 5.56936 39.7899 5.76392 39.6821C6.09235 39.6576 6.40029 39.5125 6.62888 39.2747C6.85752 39.0368 6.9908 38.7227 7.00328 38.3925C7.0044 38.2837 6.9829 38.176 6.94008 38.0757H7.57709L7.67379 37.7477H6.67112C6.54877 37.672 6.40813 37.632 6.26461 37.632C5.92488 37.6357 5.59944 37.7696 5.35496 38.0064C5.11048 38.2432 4.96547 38.5643 4.94968 38.9051C4.94195 39.0848 4.99928 39.2613 5.11112 39.4021C5.22291 39.5429 5.38173 39.6384 5.55821 39.6709C5.18637 39.8373 4.97816 40.0325 4.97816 40.264C4.97602 40.3243 4.98909 40.3845 5.01613 40.4389C5.04323 40.4933 5.08344 40.5397 5.13309 40.5744C4.27298 40.8235 3.93341 41.1152 3.93341 41.5243C3.93341 41.9333 4.4564 42.1024 5.07608 42.1024C6.12579 42.1024 7.0045 41.5317 7.0045 41.0544L6.99832 41.0459ZM2.99272 38.584C3.37197 38.584 3.37693 38.7397 3.31992 39.1536H3.53805L4.04248 37.7659H3.82557C3.63597 38.0944 3.486 38.3365 3.07331 38.3365H2.24045L2.65933 37.1793C2.79816 36.7939 2.87746 36.7181 3.39426 36.7181H3.76611C4.29901 36.7181 4.36221 36.8623 4.36221 37.3984H4.57416L4.75261 36.4533H1.58109L1.51917 36.6323C2.13261 36.7566 2.18962 36.8163 1.90333 37.6107L1.21922 39.4992C0.932931 40.2875 0.811491 40.3509 0.103811 40.4779L0.0517578 40.6565H3.57773L4.20978 39.6544H3.96808C3.56653 40.0352 3.06216 40.4005 2.35693 40.4005C1.42125 40.4005 1.50797 40.3605 1.81784 39.5029L2.15 38.5877L2.99272 38.584ZM3.45256 36.1723L4.56797 35.4003V35.2759H3.89373L3.27405 36.1686L3.45256 36.1723Z" fill="black"/>
<path d="M17.4721 30.87C17.684 30.87 17.8687 31.0303 17.7707 31.4393L16.7793 31.6694C16.9515 31.2094 17.2391 30.87 17.4683 30.87H17.4721ZM18.0136 32.4638H17.8178C17.5699 32.7584 17.3072 32.9884 17.0432 32.9884C16.7793 32.9884 16.6367 32.8268 16.6367 32.4638C16.6368 32.3167 16.6522 32.17 16.6826 32.0262L18.2714 31.5028C18.5813 30.7655 18.2082 30.4435 17.7757 30.4435C17.0247 30.4435 16.1646 31.7041 16.1646 32.8056C16.1646 33.303 16.4 33.5715 16.7669 33.5715C17.1969 33.5715 17.6456 33.1513 18.0124 32.46L18.0136 32.4638ZM17.6964 30.1464L18.8118 29.0984V28.974H18.2095L17.5204 30.1427L17.6964 30.1464ZM14.4084 30.8873H14.8273L13.9895 33.1836C13.9151 33.38 14.018 33.5752 14.2187 33.5752C14.6947 33.5752 15.4581 33.1028 15.7345 32.4563H15.5845C15.3726 32.6801 14.9648 32.9797 14.6153 33.0431L15.3838 30.8849H16.1707L16.2674 30.5567H15.504L15.7977 29.7275H15.4928L14.9475 30.5567L14.4084 30.6487V30.8873ZM13.9956 31.146C14.1047 30.773 14.0465 30.4435 13.7602 30.4435C13.4206 30.4435 13.3351 30.7021 12.9906 31.4456V31.0191C12.9906 30.7145 12.8927 30.4435 12.6187 30.4435C12.2978 30.4435 11.9991 30.9408 11.781 31.4381H11.9297C12.0846 31.2143 12.2271 31.0813 12.3424 31.0813C12.48 31.0813 12.5543 31.2939 12.3424 31.7663L11.7227 33.1476C11.6074 33.4074 11.7227 33.574 11.9805 33.574C12.0458 33.5831 12.1122 33.5666 12.1657 33.5279C12.2193 33.4893 12.2559 33.4314 12.268 33.3664L12.8766 31.7502C13.0476 31.5376 13.2038 31.3536 13.3983 31.146H13.9956ZM10.471 30.87C10.6841 30.87 10.8675 31.0303 10.7697 31.4393L9.77816 31.6694C9.95042 31.2094 10.2367 30.87 10.466 30.87H10.471ZM11.0113 32.4638H10.8266C10.5788 32.7584 10.316 32.9884 10.0521 32.9884C9.78808 32.9884 9.64434 32.8268 9.64434 32.4638C9.64493 32.3167 9.66029 32.1701 9.69016 32.0262L11.2802 31.5028C11.5901 30.7655 11.217 30.4435 10.7845 30.4435C10.0322 30.4435 9.17336 31.7041 9.17336 32.8056C9.17336 33.303 9.40882 33.5715 9.7757 33.5715C10.207 33.5715 10.6544 33.1513 11.0151 32.46L11.0113 32.4638ZM7.11853 33.1053C6.9636 33.1053 6.73928 32.9611 6.73928 32.8343C6.78034 32.6832 6.83213 32.5353 6.89421 32.3917L7.15325 31.7067C7.42834 31.3784 7.84728 31.0266 8.08274 31.0266C8.22653 31.0266 8.33064 31.1186 8.33064 31.3324C8.33064 31.9541 7.7444 33.1053 7.11357 33.1053H7.11853ZM8.92179 31.0788C8.92179 30.6126 8.74952 30.4398 8.42605 30.4398C8.0245 30.4398 7.64648 30.8662 7.26722 31.3834L8.22525 28.8572L8.18685 28.8L7.18173 28.9144V29.0387L7.37757 29.1891C7.5548 29.3271 7.50146 29.4713 7.33666 29.8853L6.30429 32.557C6.23512 32.7148 6.17954 32.8783 6.13821 33.0456C6.13821 33.3229 6.51 33.5814 6.84957 33.5814C7.63037 33.5814 8.93293 32.1716 8.93293 31.0888L8.92179 31.0788ZM5.81101 30.7842C5.8268 30.75 5.83426 30.7126 5.83272 30.675C5.83117 30.6374 5.82066 30.6007 5.8021 30.5679C5.78354 30.5352 5.75746 30.5075 5.72605 30.4869C5.69458 30.4663 5.65874 30.4536 5.62141 30.4497C5.16157 30.4497 4.61629 30.8637 4.39938 31.4443H4.54813C4.69682 31.2317 4.94968 30.9955 5.18514 30.9545L4.30642 33.247C4.29048 33.2806 4.28285 33.3175 4.28424 33.3546C4.28562 33.3918 4.29592 33.428 4.31432 33.4603C4.33272 33.4925 4.35864 33.5198 4.38989 33.5399C4.42109 33.5599 4.45666 33.572 4.49357 33.5752C4.92984 33.5752 5.44045 33.155 5.65858 32.5806H5.50984C5.36114 32.792 5.11325 33.027 4.87533 33.0692L5.81101 30.7842ZM5.9709 29.6317C6.02136 29.6322 6.07144 29.6225 6.11816 29.6033C6.16482 29.5841 6.20722 29.5557 6.2428 29.5198C6.27837 29.4839 6.30642 29.4412 6.3253 29.3942C6.34413 29.3472 6.35346 29.2969 6.35261 29.2463C6.35165 29.1457 6.31139 29.0495 6.24045 28.9784C6.16957 28.9072 6.07362 28.8669 5.97336 28.8659C5.92365 28.8659 5.87437 28.8757 5.82845 28.8949C5.78248 28.914 5.74077 28.942 5.70563 28.9774C5.67053 29.0127 5.64269 29.0547 5.62381 29.1008C5.60488 29.147 5.59522 29.1964 5.59538 29.2463C5.59453 29.2963 5.60376 29.346 5.62242 29.3924C5.64114 29.4388 5.66893 29.4809 5.70424 29.5163C5.73949 29.5517 5.78146 29.5796 5.8277 29.5983C5.87394 29.6171 5.92349 29.6263 5.97336 29.6255L5.9709 29.6317ZM3.66072 29.2525H1.56994L1.5117 29.4316C2.13138 29.5559 2.18344 29.6156 1.89714 30.41L1.21922 32.3034C0.932931 33.0916 0.811491 33.155 0.103811 33.2818L0.0517578 33.4596H3.23442L3.92226 32.2288H3.68184C3.29144 32.6602 2.8316 33.201 2.12642 33.201C1.59229 33.201 1.52904 33.109 1.81661 32.3034L2.49325 30.4162C2.77458 29.6267 2.90104 29.5633 3.60866 29.4377L3.66072 29.2525Z" fill="black"/>
</g>
<defs>
<clipPath id="clip0_374_1836">
<rect width="96" height="48" fill="white"/>
</clipPath>
</defs>
</svg>
