<?xml version="1.0" encoding="UTF-8" standalone="no"?>
<svg
   xmlns:dc="http://purl.org/dc/elements/1.1/"
   xmlns:cc="http://creativecommons.org/ns#"
   xmlns:rdf="http://www.w3.org/1999/02/22-rdf-syntax-ns#"
   xmlns:svg="http://www.w3.org/2000/svg"
   xmlns="http://www.w3.org/2000/svg"
   xmlns:sodipodi="http://sodipodi.sourceforge.net/DTD/sodipodi-0.dtd"
   xmlns:inkscape="http://www.inkscape.org/namespaces/inkscape"
   width="420mm"
   height="297mm"
   viewBox="110 50 200 197"
   version="1.1"
   id="svg494"
   inkscape:version="1.0.2 (e86c8708, 2021-01-15)"
   sodipodi:docname="Gouvernement.svg">
  <defs
     id="defs488" />
  <sodipodi:namedview
     id="base"
     pagecolor="#ffffff"
     bordercolor="#666666"
     borderopacity="1.0"
     inkscape:pageopacity="0.0"
     inkscape:pageshadow="2"
     inkscape:zoom="0.35"
     inkscape:cx="400"
     inkscape:cy="560"
     inkscape:document-units="mm"
     inkscape:current-layer="layer1"
     inkscape:document-rotation="0"
     showgrid="false"
     inkscape:window-width="1434"
     inkscape:window-height="943"
     inkscape:window-x="0"
     inkscape:window-y="25"
     inkscape:window-maximized="0" />
  <metadata
     id="metadata491">
    <rdf:RDF>
      <cc:Work
         rdf:about="">
        <dc:format>image/svg+xml</dc:format>
        <dc:type
           rdf:resource="http://purl.org/dc/dcmitype/StillImage" />
        <dc:title></dc:title>
      </cc:Work>
    </rdf:RDF>
  </metadata>
  <g
     inkscape:label="Calque 1"
     inkscape:groupmode="layer"
     id="layer1">
    <g
       id="g506"
       transform="matrix(0.03527778,0,0,-0.03527778,47.453116,246.08466)">
      <path
         d="m 1277.64,2947.34 v 106.47 h -160.6 v 116.39 h 288.72 v -268.87 c -58.64,-78.5 -156.99,-129.03 -275.19,-129.03 -204.808,0 -344.656,153.39 -344.656,333.84 0,180.45 136.242,333.83 335.636,333.83 114.58,0 208.42,-51.43 266.17,-128.12 l -101.06,-78.49 c -36.09,51.42 -92.93,86.61 -165.11,86.61 -119.1,0 -203.905,-92.93 -203.905,-213.83 0,-120.9 89.315,-213.84 212.925,-213.84 59.55,0 110.98,20.76 147.07,55.04"
         style="fill:#231f20;fill-opacity:1;fill-rule:nonzero;stroke:none"
         id="path508" />
      <path
         d="m 2040.07,3106.14 c 0,120.9 -84.81,213.83 -203.01,213.83 -119.09,0 -203.9,-92.93 -203.9,-213.83 0,-120.9 84.81,-213.84 203.9,-213.84 118.2,0 203.01,92.94 203.01,213.84 z m 131.73,0 c 0,-180.45 -136.24,-333.84 -334.74,-333.84 -199.39,0 -335.63,153.39 -335.63,333.84 0,180.45 136.24,333.83 335.63,333.83 198.5,0 334.74,-153.38 334.74,-333.83"
         style="fill:#231f20;fill-opacity:1;fill-rule:nonzero;stroke:none"
         id="path510" />
      <path
         d="m 2667.15,3421.93 h 128.12 v -384.36 c 0,-166.02 -97.44,-265.27 -256.24,-265.27 -157.89,0 -255.33,99.25 -255.33,265.27 v 384.36 h 128.12 v -395.19 c 0,-84.81 47.82,-134.44 128.12,-134.44 78.49,0 127.21,49.63 127.21,134.44 v 395.19"
         style="fill:#231f20;fill-opacity:1;fill-rule:nonzero;stroke:none"
         id="path512" />
      <path
         d="m 3010.93,3421.93 186.76,-493.53 186.77,493.53 h 136.24 l -239.1,-631.58 h -167.81 l -239.1,631.58 h 136.24"
         style="fill:#231f20;fill-opacity:1;fill-rule:nonzero;stroke:none"
         id="path514" />
      <path
         d="m 3618.16,3421.93 h 368.12 v -109.18 h -240 v -146.16 h 203.91 v -109.17 h -203.91 v -157.89 h 240 v -109.18 h -368.12 v 631.58"
         style="fill:#231f20;fill-opacity:1;fill-rule:nonzero;stroke:none"
         id="path516" />
      <path
         d="m 4263.29,3312.75 v -157.89 h 72.18 c 54.14,0 85.71,28.87 85.71,80.3 0,47.82 -31.57,77.59 -85.71,77.59 z m -128.12,109.18 h 193.08 c 138.95,0 224.66,-71.28 224.66,-188.57 0,-75.79 -36.99,-132.63 -101.05,-163.31 l 198.5,-279.7 h -153.39 l -167.82,255.34 h -65.86 v -255.34 h -128.12 v 631.58"
         style="fill:#231f20;fill-opacity:1;fill-rule:nonzero;stroke:none"
         id="path518" />
      <path
         d="m 4729.77,3421.93 h 164.21 l 282.4,-452.03 v 452.03 h 128.12 v -631.58 h -164.2 l -282.41,453.83 v -453.83 h -128.12 v 631.58"
         style="fill:#231f20;fill-opacity:1;fill-rule:nonzero;stroke:none"
         id="path520" />
      <path
         d="m 5481.36,3421.93 h 368.12 v -109.18 h -240 v -146.16 h 203.91 v -109.17 h -203.91 v -157.89 h 240 v -109.18 h -368.12 v 631.58"
         style="fill:#231f20;fill-opacity:1;fill-rule:nonzero;stroke:none"
         id="path522" />
      <path
         d="m 5998.37,3421.93 h 161.5 l 152.48,-259.85 152.48,259.85 h 161.5 v -631.58 h -128.11 v 449.32 l -140.75,-232.78 h -90.23 l -140.75,232.78 v -449.32 h -128.12 v 631.58"
         style="fill:#231f20;fill-opacity:1;fill-rule:nonzero;stroke:none"
         id="path524" />
      <path
         d="m 6802.29,3421.93 h 368.13 v -109.18 h -240 v -146.16 h 203.9 v -109.17 h -203.9 v -157.89 h 240 v -109.18 h -368.13 v 631.58"
         style="fill:#231f20;fill-opacity:1;fill-rule:nonzero;stroke:none"
         id="path526" />
      <path
         d="m 7319.3,3421.93 h 164.22 l 282.4,-452.03 v 452.03 h 128.12 v -631.58 h -164.21 l -282.4,453.83 V 2790.35 H 7319.3 v 631.58"
         style="fill:#231f20;fill-opacity:1;fill-rule:nonzero;stroke:none"
         id="path528" />
      <path
         d="m 8005.94,3421.93 h 517.89 v -116.39 h -194.88 v -515.19 h -128.12 v 515.19 h -194.89 v 116.39"
         style="fill:#231f20;fill-opacity:1;fill-rule:nonzero;stroke:none"
         id="path530" />
      <path
         d="m 1022.11,837.832 4.63,14.348 c -61.592,11.57 -69.463,11.57 -44.916,78.718 l 25.006,69 h 68.07 c 30.56,0 31.02,-12.5 26.39,-45.839 h 17.6 l 40.75,111.591 h -17.6 c -15.28,-26.39 -27.32,-45.84 -60.66,-45.84 h -67.15 l 35.66,97.7 c 11.12,31.03 17.6,37.51 59.28,37.51 h 29.63 c 43.07,0 48.16,-11.57 48.16,-55.1 h 17.13 l 14.36,75.94 H 962.832 l -4.629,-14.35 c 49.547,-10.19 54.177,-14.82 31.027,-78.72 L 933.664,930.898 c -23.156,-63.437 -32.883,-68.527 -89.84,-78.718 l -4.164,-14.348 z m 354.7,186.148 c 8.8,30.1 4.17,56.49 -18.98,56.49 -27.33,0 -34.27,-20.84 -62.05,-80.572 v 34.262 c 0,24.55 -7.88,46.31 -30.1,46.31 -25.94,0 -49.55,-40.29 -67.61,-80.11 h 12.04 c 12.5,18.06 24.08,28.71 33.34,28.71 11.11,0 17.13,-17.13 0,-55.101 l -50.01,-111.137 c -9.26,-20.84 0.46,-34.273 20.83,-34.273 12.51,0 18.07,3.242 23.16,16.671 l 49.09,130.129 c 13.89,17.121 26.39,31.951 42.13,48.621 z m 225.05,67.14 -19.45,1.39 -21.76,-21.3 h -4.63 c -105.58,0 -196.81,-118.55 -196.81,-204.671 0,-24.078 14.82,-37.98 37.97,-37.98 27.32,0 54.18,38.902 84.28,80.582 l -1.39,-14.821 c -3.7,-42.609 9.26,-65.761 31.49,-65.761 25.93,0 49.55,40.293 67.61,80.121 h -12.04 c -12.5,-18.071 -24.08,-28.711 -33.34,-28.711 -9.73,0 -16.67,17.59 0,55.09 z M 1406.91,900.801 c 0,56.961 63.44,134.289 99.09,134.289 7.87,0 15.29,-0.93 21.77,-2.78 l -37.05,-98.63 c -21.3,-25.93 -54.18,-57.43 -69.46,-57.43 -8.8,0 -14.35,7.422 -14.35,24.551 m 233.84,144.019 h 42.6 l -67.61,-184.769 c -6.02,-15.75 2.32,-31.492 18.53,-31.492 38.43,0 100.48,37.98 122.25,89.832 h -12.04 c -17.13,-18.051 -50.01,-42.141 -78.26,-47.219 l 62.05,173.648 h 63.44 l 7.87,26.39 h -61.59 l 23.62,66.69 h -24.54 l -43.99,-66.69 -52.33,-7.41 z m 302.39,-126.89 h -15.75 c -19.91,-23.61 -41.21,-42.129 -62.52,-42.129 -21.76,0 -32.87,12.961 -32.87,42.129 0,12.05 1.39,24.09 3.7,35.199 l 128.27,42.141 c 25.01,59.27 -5.09,85.2 -40.28,85.2 -60.67,0 -129.67,-101.411 -129.67,-190.318 0,-39.82 18.99,-61.593 48.63,-61.593 34.73,0 70.85,33.812 100.49,89.371 m -44,128.28 c 17.14,0 31.96,-12.97 24.08,-45.85 l -79.64,-18.52 c 13.89,37.04 37.04,64.37 55.56,64.37 m 284.33,-22.23 c 8.8,30.1 4.17,56.49 -18.99,56.49 -27.32,0 -34.26,-20.84 -62.05,-80.572 v 34.262 c 0,24.55 -7.87,46.31 -30.1,46.31 -25.93,0 -49.55,-40.29 -67.61,-80.11 h 12.04 c 12.5,18.06 24.08,28.71 33.34,28.71 11.12,0 17.14,-17.13 0,-55.101 l -50.01,-111.137 c -9.26,-20.84 0.47,-34.273 20.84,-34.273 12.5,0 18.06,3.242 23.15,16.671 l 49.09,130.129 c 13.89,17.121 26.4,31.951 42.14,48.621 z m 0.92,-161.148 c -9.26,-20.84 0.46,-34.273 20.84,-34.273 12.5,0 18.06,3.242 23.15,16.671 l 49.09,130.129 c 22.69,27.781 69.46,57.421 87.98,57.421 13.43,0 11.58,-11.12 2.78,-27.79 l -75.48,-144.939 c -7.41,-14.352 2.31,-31.492 18.52,-31.492 37.05,0 81.04,33.339 98.63,80.121 h -12.04 c -12.04,-17.141 -32.41,-36.129 -51.4,-39.371 l 64.83,131.051 c 8.34,16.67 12.51,32.42 12.51,44.92 0,21.3 -12.05,35.19 -34.27,35.19 -31.96,0 -64.37,-36.12 -102.8,-80.572 v 34.262 c 0,24.55 -7.88,46.31 -30.1,46.31 -13.89,0 -27.32,-12.04 -39.83,-29.18 v -4.63 c 24.09,1.39 34.73,-34.72 17.6,-72.691 z m 407.95,283.398 c 16.68,0 30.57,13.42 30.57,30.56 0,16.67 -13.89,30.56 -30.57,30.56 -17.13,0 -30.56,-13.89 -30.56,-30.56 0,-17.14 13.43,-30.56 30.56,-30.56 m -12.96,-92.61 c 5.09,17.13 -6.48,26.85 -15.28,26.85 -37.05,0 -81.04,-33.34 -98.63,-80.11 h 12.04 c 12.04,17.13 32.41,36.12 51.4,39.36 l -70.85,-184.31 c -6.49,-17.121 6.48,-26.851 15.28,-26.851 35.19,0 76.4,33.812 94,80.121 h -12.04 c -12.04,-17.141 -32.41,-36.129 -51.4,-39.371 z m 57.42,-8.8 h 42.6 l -67.61,-184.769 c -6.02,-15.75 2.32,-31.492 18.52,-31.492 38.44,0 100.49,37.98 122.25,89.832 h -12.04 c -17.13,-18.051 -50.01,-42.141 -78.25,-47.219 l 62.05,173.648 h 63.44 l 7.87,26.39 h -61.59 l 23.62,66.69 h -24.54 l -44,-66.69 -52.32,-7.41 z m 276.91,59.27 90.3,84.27 v 9.73 h -48.63 l -55.56,-94 z m 25.47,-186.16 h -15.75 c -19.91,-23.61 -41.21,-42.129 -62.52,-42.129 -21.76,0 -32.87,12.961 -32.87,42.129 0,12.05 1.39,24.09 3.7,35.199 l 128.27,42.141 c 25.01,59.27 -5.09,85.2 -40.28,85.2 -60.67,0 -129.67,-101.411 -129.67,-190.318 0,-39.82 18.99,-61.593 48.63,-61.593 34.73,0 70.85,33.812 100.49,89.371 m -44,128.28 c 17.14,0 31.96,-12.97 24.08,-45.85 l -79.64,-18.52 c 13.89,37.04 37.04,64.37 55.56,64.37"
         style="fill:#231f20;fill-opacity:1;fill-rule:nonzero;stroke:none"
         id="path532" />
      <path
         d="m 1113.8,1777.39 90.29,62.05 v 9.72 h -54.64 l -50.01,-71.77 z m -37.05,-194.03 c 30.56,0 31.02,-12.5 26.4,-45.84 h 17.59 l 40.75,111.6 h -17.6 c -15.28,-26.39 -27.32,-45.84 -60.66,-45.84 h -67.14 l 33.8,93.07 c 11.12,31.03 17.6,37.05 59.28,37.05 h 29.63 c 43.07,0 48.16,-11.58 48.16,-54.65 h 17.13 l 14.36,75.95 H 962.832 l -4.629,-14.35 c 49.547,-10.19 54.177,-14.83 31.027,-78.72 l -55.566,-151.89 c -23.156,-63.45 -32.883,-68.53 -89.84,-78.73 l -4.164,-14.36 h 284.32 l 50.94,80.58 h -19.45 c -32.41,-30.56 -73.16,-59.74 -130.12,-59.74 -75.479,0 -68.537,3.25 -43.526,72.25 l 26.856,73.62 z m 323.69,-198.19 c 0,29.64 -26.4,40.28 -69.47,53.25 -37.04,11.12 -53.71,14.36 -53.71,26.4 0,9.73 7.87,21.3 23.62,29.64 60.66,3.24 100.02,57.88 100.02,103.72 0,9.72 -1.86,18.06 -5.1,25.47 h 51.4 l 7.88,26.39 h -81.5 c -9.73,6.03 -21.3,9.27 -32.88,9.27 -64.37,0 -106.05,-56.49 -106.05,-102.34 0,-34.73 22.23,-56.5 49.09,-61.58 -30.1,-13.44 -46.77,-29.18 -46.77,-47.7 0,-10.65 3.71,-18.07 12.5,-25.01 -69.45,-20.37 -96.78,-43.53 -96.78,-76.41 0,-31.95 42.14,-45.38 92.16,-45.38 84.74,0 155.59,45.84 155.59,84.28 m -100.49,126.89 c -15.28,0 -21.3,12.95 -21.3,27.78 0,41.21 22.23,101.87 56.96,101.87 15.28,0 21.3,-12.97 21.3,-27.78 0,-41.22 -22.23,-101.87 -56.96,-101.87 m -95.86,-149.58 c 0,24.55 23.62,39.83 57.43,53.26 11.11,-5.56 27.78,-11.59 50,-19 35.2,-11.57 48.63,-16.2 48.63,-26.85 0,-22.69 -38.43,-39.83 -90.76,-39.83 -43.99,0 -65.3,9.27 -65.3,32.42 m 471.4,307.48 -19.45,1.39 -21.76,-21.31 h -4.63 c -105.58,0 -196.81,-118.54 -196.81,-204.67 0,-24.08 14.82,-37.97 37.98,-37.97 27.32,0 54.18,38.89 84.27,80.57 l -1.38,-14.81 c -3.71,-42.61 9.26,-65.76 31.48,-65.76 25.93,0 49.55,40.29 67.61,80.1 h -12.04 c -12.5,-18.05 -24.08,-28.7 -33.34,-28.7 -9.72,0 -16.67,17.59 0,55.1 z m -194.95,-190.33 c 0,56.97 63.44,134.3 99.1,134.3 7.87,0 15.28,-0.93 21.76,-2.78 l -37.04,-98.64 c -21.31,-25.92 -54.18,-57.42 -69.47,-57.42 -8.79,0 -14.35,7.41 -14.35,24.54 m 245.42,-31.48 129.2,338.5 -4.17,5.09 -81.04,-9.26 v -9.72 l 15.75,-12.04 c 14.36,-11.12 9.72,-21.76 -3.24,-56.03 l -100.95,-265.8 c -7.41,-14.35 2.31,-31.49 18.52,-31.49 37.05,0 76.41,33.34 94,80.1 h -12.04 c -12.04,-17.12 -37.04,-36.11 -56.03,-39.35 m 246.36,276.91 c 16.67,0 30.56,13.43 30.56,30.57 0,16.67 -13.89,30.56 -30.56,30.56 -17.14,0 -30.57,-13.89 -30.57,-30.56 0,-17.14 13.43,-30.57 30.57,-30.57 m -12.97,-92.61 c 5.09,17.13 -6.48,26.86 -15.28,26.86 -37.05,0 -81.04,-33.34 -98.64,-80.12 h 12.04 c 12.04,17.14 32.42,36.13 51.4,39.37 l -70.85,-184.31 c -6.48,-17.13 6.49,-26.85 15.29,-26.85 35.19,0 76.4,33.81 94,80.1 h -12.04 c -12.04,-17.12 -32.42,-36.11 -51.4,-39.35 z m 57.41,-8.8 h 42.61 l -67.61,-184.76 c -6.02,-15.75 2.31,-31.49 18.52,-31.49 38.44,0 100.49,37.97 122.25,89.83 h -12.04 c -17.13,-18.06 -50.01,-42.14 -78.26,-47.23 l 62.05,173.65 h 63.45 l 7.87,26.39 h -61.59 l 23.61,66.69 h -24.54 l -43.99,-66.69 -52.33,-7.4 z m 276.91,59.27 90.3,84.28 v 9.73 h -48.62 l -55.57,-94.01 z m 25.47,-186.15 h -15.74 c -19.91,-23.61 -41.22,-42.14 -62.51,-42.14 -21.77,0 -32.89,12.96 -32.89,42.14 0,12.04 1.4,24.08 3.71,35.2 l 128.27,42.14 c 25.01,59.26 -5.1,85.2 -40.29,85.2 -60.66,0 -129.65,-101.41 -129.65,-190.32 0,-39.83 18.98,-61.59 48.61,-61.59 34.74,0 70.85,33.81 100.49,89.37 m -43.99,128.27 c 17.13,0 31.95,-12.97 24.08,-45.85 l -79.65,-18.51 c 13.89,37.04 37.05,64.36 55.57,64.36"
         style="fill:#231f20;fill-opacity:1;fill-rule:nonzero;stroke:none"
         id="path534" />
      <path
         d="M 1130.47,2333.54 H 961.91 l -4.633,-14.36 c 49.553,-10.18 54.183,-14.82 31.024,-78.72 l -54.637,-151.89 c -23.156,-63.44 -32.883,-68.53 -89.84,-78.72 l -4.164,-14.36 h 256.54 l 55.57,99.1 h -19.45 c -31.49,-34.72 -68.53,-78.26 -125.49,-78.26 -43.068,0 -48.162,7.41 -25.006,72.24 l 54.636,151.89 c 22.69,63.44 32.88,68.54 89.84,78.72 z m 186.61,-29.64 c 16.67,0 30.56,13.43 30.56,30.57 0,16.67 -13.89,30.55 -30.56,30.55 -17.14,0 -30.56,-13.88 -30.56,-30.55 0,-17.14 13.42,-30.57 30.56,-30.57 m -12.97,-92.62 c 5.1,17.14 -6.48,26.87 -15.28,26.87 -37.05,0 -81.04,-33.35 -98.63,-80.12 h 12.04 c 12.03,17.14 32.41,36.12 51.39,39.37 l -70.85,-184.31 c -6.47,-17.13 6.49,-26.86 15.29,-26.86 35.19,0 76.4,33.81 94,80.11 h -12.04 c -12.04,-17.13 -32.41,-36.11 -51.4,-39.35 z m 251.91,-24.54 c 0,37.51 -13.9,51.41 -39.83,51.41 -32.41,0 -62.98,-34.27 -93.54,-75.95 l 77.33,203.29 -4.16,5.09 -81.04,-9.26 v -9.72 l 15.74,-12.05 c 14.36,-11.11 9.73,-22.68 -3.24,-56.02 l -83.35,-214.87 c -6.02,-15.75 -13.43,-34.26 -13.43,-39.36 0,-22.23 30.1,-43.07 57.42,-43.07 62.98,0 168.1,113.45 168.1,200.51 m -145.87,-163 c -12.51,0 -30.56,11.58 -30.56,21.77 0,3.23 5.55,17.59 12.5,35.66 l 20.84,55.1 c 22.22,26.39 56.03,54.64 75.02,54.64 11.57,0 20.37,-7.41 20.37,-24.54 0,-50.48 -47.23,-142.63 -98.17,-142.63 m 314.42,51.87 h -15.75 c -19.91,-23.62 -41.21,-42.14 -62.51,-42.14 -21.77,0 -32.88,12.96 -32.88,42.14 0,12.04 1.39,24.07 3.71,35.2 l 128.27,42.13 c 25,59.27 -5.1,85.21 -40.29,85.21 -60.67,0 -129.66,-101.42 -129.66,-190.32 0,-39.83 18.98,-61.6 48.62,-61.6 34.73,0 70.85,33.81 100.49,89.38 m -44,128.27 c 17.14,0 31.96,-12.97 24.08,-45.85 l -79.64,-18.52 c 13.89,37.05 37.04,64.37 55.56,64.37 m 284.33,-22.23 c 8.8,30.1 4.17,56.5 -18.99,56.5 -27.32,0 -34.26,-20.84 -62.05,-80.58 v 34.27 c 0,24.54 -7.87,46.31 -30.1,46.31 -25.93,0 -49.54,-40.29 -67.61,-80.12 h 12.04 c 12.51,18.07 24.08,28.71 33.34,28.71 11.12,0 17.14,-17.13 0,-55.1 l -50.01,-111.14 c -9.26,-20.84 0.47,-34.27 20.84,-34.27 12.5,0 18.06,3.25 23.15,16.67 l 49.09,130.13 c 13.89,17.13 26.4,31.94 42.14,48.62 z m 33.33,20.83 h 33.81 l -67.61,-184.76 c -6.02,-15.74 2.31,-31.49 18.53,-31.49 38.43,0 100.48,37.97 122.24,89.84 h -12.03 c -17.14,-18.06 -50.02,-42.14 -78.27,-47.24 l 62.05,173.65 h 63.45 l 7.87,26.4 h -61.59 l 23.62,66.68 h -24.55 l -43.99,-66.68 -43.53,-7.4 z m 265.34,59.28 90.3,84.28 v 9.73 h -48.62 l -55.58,-94.01 z m 25.46,-186.15 h -15.74 c -19.91,-23.62 -41.21,-42.14 -62.51,-42.14 -21.76,0 -32.88,12.96 -32.88,42.14 0,12.04 1.39,24.07 3.7,35.2 l 128.27,42.13 c 25.01,59.27 -5.09,85.21 -40.28,85.21 -60.66,0 -129.66,-101.42 -129.66,-190.32 0,-39.83 18.98,-61.6 48.62,-61.6 34.73,0 70.85,33.81 100.48,89.38 m -43.98,128.27 c 17.13,0 31.95,-12.97 24.07,-45.85 l -79.64,-18.52 c 13.89,37.05 37.04,64.37 55.57,64.37"
         style="fill:#231f20;fill-opacity:1;fill-rule:nonzero;stroke:none"
         id="path536" />
      <path
         d="m 1514.29,4078.98 c -1.58,1.59 4.76,0 6.34,3.17 -4.75,0 -7.92,0 -12.67,0 -1.59,0 -1.59,1.59 -1.59,3.18 -7.93,-1.59 -17.43,-4.76 -25.36,-6.35 -11.09,-3.16 -20.6,-11.09 -33.28,-14.26 -17.43,-6.34 -31.69,-20.6 -50.71,-26.94 -1.58,0 -1.58,1.58 -1.58,3.17 1.58,4.76 7.92,6.34 11.09,11.1 0,1.58 0,3.16 -1.59,3.16 12.68,17.44 30.12,26.94 45.96,41.21 0,1.58 0,3.17 0,4.75 4.76,6.34 12.68,9.51 15.85,17.44 1.59,4.75 7.92,11.09 15.85,14.26 -1.59,1.58 -4.76,1.58 -4.76,4.75 -6.33,0 -12.67,-3.17 -19.02,1.59 2.96,2.95 6.36,4.58 9.95,5.63 -1.38,0.28 -2.6,0.95 -3.6,2.29 -1.59,3.17 3.06,6.71 7.92,7.92 6.34,1.59 14.26,1.59 19.02,6.35 -11.1,1.58 -23.77,-3.18 -34.87,3.16 7.93,20.61 20.6,38.04 39.62,47.54 1.58,0 4.76,0 4.76,-1.58 0,-7.92 -4.76,-14.26 -12.68,-15.85 12.68,-3.17 25.35,-3.17 38.03,-9.5 -1.58,-3.17 -4.76,-1.59 -6.34,-1.59 7.93,-4.75 17.44,-1.58 25.36,-7.93 -4.76,-4.75 -9.51,0 -14.26,0 49.13,-14.25 101.42,-25.35 142.62,-57.04 -34.86,-17.44 -71.31,-25.36 -109.34,-33.28 -4.76,0 -7.93,0 -12.68,1.58 0,-1.58 0,-4.76 -1.59,-4.76 -6.33,0 -11.09,0 -15.84,-3.17 -6.34,-3.16 -15.85,-4.75 -20.61,0 z m -32.45,-110.24 c -0.13,-0.09 -0.26,-0.18 -0.39,-0.27 -5.94,-4.18 -11.85,-8.44 -18.1,-12.07 -6.78,-3.93 -13.87,-6.92 -20.91,-10.26 -0.05,0.13 -0.11,0.26 -0.2,0.38 -0.53,0.74 -1.64,1.2 -2.67,0.64 -6,-3.24 -11.11,-7.53 -15.96,-12.15 -0.74,-0.7 -1.47,-1.41 -2.2,-2.13 -0.04,-0.04 -0.09,-0.08 -0.13,-0.12 -0.04,-0.04 -0.08,-0.08 -0.12,-0.12 -0.76,-0.75 -1.51,-1.49 -2.25,-2.25 -0.1,-0.08 -0.18,-0.17 -0.27,-0.26 -0.05,-0.05 -0.05,-0.1 -0.1,-0.15 -1.12,-1.12 -2.22,-2.25 -3.45,-3.7 -0.79,-0.94 -1.06,-1.52 -2.11,-2.22 -0.99,-0.65 -3.71,-0.64 -3.46,1.19 0.01,0.1 0.01,0.2 0.02,0.31 -0.94,-0.5 -1.87,-0.99 -2.81,-1.44 -0.87,-0.42 -1.67,-0.89 -2.48,-1.36 -0.34,0.13 -0.71,0.18 -1.09,0.16 -0.4,-0.03 -0.81,-0.12 -1.14,-0.39 -1.94,-1.52 -3.86,-3.13 -5.73,-4.82 -3.31,-3 -6.43,-6.27 -9.19,-9.78 -0.06,-0.04 -0.1,-0.09 -0.15,-0.14 -0.1,-0.15 -0.21,-0.3 -0.31,-0.44 -0.15,-0.21 -0.32,-0.41 -0.47,-0.62 -0.17,-0.22 -0.34,-0.43 -0.5,-0.65 -0.05,-0.07 -0.11,-0.13 -0.16,-0.2 -0.38,-0.51 -0.71,-1.05 -1.08,-1.57 -0.02,-0.03 -0.04,-0.07 -0.06,-0.1 -0.27,-0.29 -0.72,-0.5 -1.3,-0.62 -0.21,0.32 -0.43,0.62 -0.63,0.95 -0.16,0.24 -0.3,0.5 -0.45,0.76 -0.47,0.82 -0.92,1.67 -1.35,2.54 -0.01,0.03 -0.03,0.06 -0.04,0.09 -0.13,0.26 -0.26,0.53 -0.38,0.79 1.72,1.85 3.38,3.75 4.98,5.7 0.1,0.13 0.21,0.26 0.31,0.39 0.56,0.67 1.11,1.35 1.65,2.04 0.9,1.12 1.78,2.25 2.66,3.38 0.32,0.42 0.65,0.84 0.97,1.26 1.74,2.27 3.4,4.48 4.95,6.69 0.04,0.06 0.08,0.12 0.12,0.17 0.23,0.34 0.46,0.67 0.68,1 0.76,1.12 1.49,2.26 2.17,3.41 0.62,1.03 1.2,2.08 1.74,3.16 0.04,0.08 0.08,0.15 0.12,0.23 0.06,0.11 0.12,0.22 0.17,0.33 0.1,0.19 0.17,0.4 0.26,0.59 0.56,1.2 1.06,2.43 1.51,3.7 0.05,0.13 0.09,0.27 0.14,0.41 0.12,0.34 0.24,0.68 0.35,1.04 0.18,0.57 0.34,1.15 0.5,1.74 v 0.01 c 0.03,0.13 0.06,0.26 0.09,0.38 0.19,0.77 0.4,1.53 0.55,2.33 0.08,0.42 -0.03,0.76 -0.19,1.07 1.7,2.97 3.84,5.83 6.28,8.55 -0.23,-0.14 -0.5,-0.27 -0.73,-0.41 -2.26,-1.46 -3.77,-3.5 -5.88,-5.08 -1.73,-1.29 -4.91,0.84 -2.86,2.37 1.39,1.04 2.45,2.18 3.6,3.27 0.07,0.09 0.09,0.17 0.17,0.25 2.61,2.58 5.11,5.88 8.08,8.05 1.82,1.33 3.41,2.44 4.88,3.72 0.24,0.2 0.47,0.42 0.69,0.63 1.1,1.46 2.3,2.77 3.55,4 0.06,0.05 0.1,0.11 0.17,0.16 15.16,14.63 40.7,13.99 60.7,23.32 7.92,3.17 17.43,-1.59 25.36,0 4.75,0 9.5,0 14.25,-3.17 -14.23,-7.77 -27.39,-16.52 -40.37,-24.67 z m 28.4,-13.09 c -0.72,-1.74 -2.33,-3.24 -3.91,-4.63 1.98,-0.4 3.37,-1.27 2.09,-2.45 -3.67,-3.37 -7.18,-6.75 -12.01,-8.38 -0.33,-0.11 -1.3,-0.26 -2.43,-0.33 -1.94,-1.88 -3.9,-3.75 -5.92,-5.54 -1.88,-1.66 -10.59,-0.46 -7.93,1.9 4.03,3.56 7.75,7.44 11.72,11.06 2.24,2.05 4.61,4.01 6.59,6.31 1.1,1.28 2.01,2.53 3.4,3.51 1.3,0.92 9.68,1.66 8.4,-1.45 z m -73.6,237.44 c -1.58,-3.17 -3.34,-3.51 -4.75,-6.34 -1.59,-3.17 -3.17,-4.75 -6.34,-6.34 -1.59,0 -3.18,0 -3.18,1.59 1.59,6.33 6.35,12.67 12.69,14.26 1.58,0 1.58,-1.59 1.58,-3.17 z M 1305.1,4088.5 c 0,0 -1.58,1.58 -1.58,3.16 20.6,26.95 36.45,52.3 50.71,80.82 20.61,11.1 37.7,27.25 53.89,44.38 26.94,28.53 55.46,53.88 88.74,69.73 12.68,4.75 28.53,3.17 41.21,-1.59 -4.76,-6.33 -12.68,-4.75 -19.02,-9.5 -1.59,0 -3.17,0 -4.76,1.58 1.59,1.59 1.59,3.17 1.59,4.76 -15.85,-17.44 -38.04,-25.36 -50.71,-45.96 -9.51,-15.85 -15.85,-36.45 -36.45,-41.21 -6.35,-1.58 1.58,4.76 -1.59,3.17 -49.13,-30.11 -83.99,-66.56 -122.03,-109.34 z m 242.47,-34.87 c -3.16,0 -9.5,-1.58 -7.92,1.58 1.58,7.93 12.68,7.93 19.01,11.1 3.18,1.58 7.93,4.75 11.1,3.17 3.17,-4.76 7.92,-3.17 11.1,-6.34 -9.52,-9.51 -22.2,-4.76 -33.29,-9.51 z m 243.71,-113.53 c 9,9.01 18.09,18.67 27.12,28.37 h -0.2 c 16.85,19.05 33.34,37.22 52.86,53.95 5.95,5.31 11.72,9.99 17.24,13.78 1.58,1.58 1.58,4.75 3.17,6.34 -7.92,-3.18 -12.68,-9.51 -20.6,-12.68 -1.59,0 -3.17,1.58 -1.59,3.17 5.65,4.23 11.29,8.46 16.93,12.7 -0.34,-0.02 -0.72,-0.02 -1.08,-0.02 -1.58,0 -1.58,1.58 -1.58,3.17 -20.61,3.17 -36.45,-11.1 -50.72,-23.78 -3.17,-1.58 -6.34,1.59 -7.92,1.59 -23.77,-7.93 -41.21,-28.53 -64.98,-38.04 0,1.59 0,1.59 0,3.18 -9.51,-3.18 -18.74,-8.93 -28.52,-11.1 -14.27,-3.17 -26.95,-1.59 -39.63,-1.59 -19.2,-1.91 -38.41,-6.15 -57.62,-10.25 -0.55,-0.15 -1.11,-0.27 -1.66,-0.42 -10.3,-2.82 -20.02,-6.66 -29.53,-11.89 -0.37,-0.2 -0.72,-0.41 -1.07,-0.63 -0.8,-0.99 -1.57,-1.94 -2.3,-2.74 -3.41,-3.75 -6.35,-7.18 -10.87,-9.49 -9.74,-4.95 -17.69,-13.58 -26.28,-20.59 -0.62,-0.5 -1.56,-0.75 -2.54,-0.8 -8.5,-8.16 -16.89,-16.43 -25.52,-24.44 -0.61,-0.56 -3.07,-0.87 -4.84,-0.58 0.04,0.06 0.1,0.09 0.13,0.15 0.31,0.5 0.61,1.01 0.92,1.51 1.33,2.24 2.69,4.47 4.06,6.68 1.53,2.48 3.1,4.94 4.7,7.37 2.16,3.27 4.38,6.51 6.74,9.65 0.62,0.81 0.45,1.54 -0.05,2.08 -0.51,0.52 -1.34,0.83 -2.19,0.82 7.9,7.67 17.3,14.21 26.6,19.85 0,0.1 -0.01,0.18 -0.01,0.27 -1.05,-0.36 -2.59,0.48 -1.79,1.6 1,1.4 1.79,2.89 2.73,4.32 0.18,0.47 0.34,0.94 0.51,1.41 -0.4,0.42 -0.8,0.83 -1.2,1.25 -2.55,-1.67 -5.28,-3.25 -7.45,-5.2 -3.79,-3.42 -6.76,-10.41 -12.51,-10.34 -0.38,0 -1.5,0.06 -2.4,0.34 -0.69,0.12 -1.29,0.31 -1.67,0.56 0.07,0.13 0.14,0.25 0.21,0.37 0.07,0.15 0.16,0.29 0.24,0.44 0.07,0.14 0.15,0.27 0.23,0.41 0.24,0.45 0.49,0.91 0.75,1.36 0.25,0.46 0.5,0.91 0.75,1.37 0.21,0.36 0.4,0.73 0.61,1.1 0.38,0.67 0.74,1.34 1.12,2.01 0.28,0.48 0.56,0.95 0.84,1.43 0.67,1.17 1.35,2.33 2.04,3.5 0.33,0.56 0.65,1.12 0.98,1.68 0.57,0.96 1.11,1.93 1.68,2.88 0.79,1.32 -0.03,2.4 -1.19,2.83 2.94,3.81 6.53,7 10.85,9.46 h -0.47 c 6.06,3.05 12.13,6.77 18.2,10.18 0.87,0.75 1.74,1.52 2.62,2.26 -9.05,-3.03 -17.17,-7.15 -25.21,-12.44 0,0 -2.09,-0.85 -2.68,-1.44 0,0 -1.82,-0.69 -3.95,1.44 -0.22,0.29 -0.38,0.65 -0.38,1.17 1.59,3.17 6.34,4.75 9.51,7.92 1.59,0 3.17,0 3.17,-1.58 50.71,39.62 120.44,30.1 179.08,50.71 4.75,3.17 9.51,6.34 14.26,9.51 7.92,3.16 14.26,11.09 23.77,15.85 12.68,9.5 22.19,20.6 26.94,36.45 0,1.58 -1.58,3.16 -1.58,3.16 -20.6,-22.18 -44.38,-39.61 -69.73,-52.3 -33.28,-17.43 -69.73,-14.26 -104.6,-19.01 1.59,3.17 4.76,3.17 7.93,3.17 0,4.76 3.17,6.34 6.34,9.51 1.58,0 3.16,0 4.75,0 1.59,0 1.59,3.17 3.17,3.17 3.17,0 7.93,1.58 6.34,1.58 -4.75,6.34 -14.26,-4.75 -22.18,0 3.16,3.17 1.58,7.93 4.75,9.51 1.58,0 4.75,0 6.33,0 0,3.17 3.18,6.34 3.18,6.34 23.77,14.26 45.96,25.35 68.14,38.03 -4.75,0 -7.92,-4.75 -12.68,-1.58 3.18,0 0,4.75 3.18,4.75 17.43,4.76 31.69,14.27 49.12,20.6 -6.34,0 -11.09,-4.75 -17.43,0 3.17,1.59 4.75,4.76 9.51,4.76 0,1.59 0,3.17 0,4.75 0,1.59 1.58,1.59 3.17,1.59 -1.59,0 -3.17,1.58 -3.17,1.58 1.58,3.17 6.34,1.59 9.5,4.76 -1.58,0 -4.75,0 -4.75,1.58 4.75,6.34 12.68,7.93 20.6,9.51 -1.58,3.17 -6.34,0 -6.34,3.17 0,1.59 1.59,1.59 3.17,1.59 -1.58,0 -1.58,0 -3.17,0 -3.16,1.58 -1.58,4.75 -1.58,6.33 9.51,11.1 9.51,25.36 14.26,38.04 -1.59,0 -3.17,0 -3.17,1.58 -15.85,-17.43 -41.2,-23.77 -64.97,-30.11 -1.59,0 -6.34,0 -7.93,0 -7.92,-3.16 -19.02,-3.16 -26.94,1.59 -6.33,3.17 -9.51,7.92 -15.85,12.68 -12.67,7.92 -25.35,14.26 -39.62,19.01 -39.61,12.68 -80.82,19.02 -122.02,17.44 17.43,9.5 36.66,10.31 55.47,15.84 26.94,7.93 52.29,17.43 80.82,15.85 -4.75,1.58 -11.09,0 -15.85,0 -22.18,1.58 -44.37,-4.75 -68.15,-9.51 -15.84,-3.17 -30.1,-9.51 -45.95,-12.68 -9.51,-3.16 -14.27,-12.68 -25.36,-11.09 0,0 0,3.17 0,4.76 15.85,19.01 34.86,38.03 60.22,39.62 28.53,4.75 55.47,0 84,-3.17 20.59,-1.59 39.61,-6.35 60.21,-11.1 7.93,0 9.52,-12.68 15.86,-14.26 9.5,-3.17 19.01,0 28.52,-6.34 0,3.17 -1.58,6.34 0,9.51 6.34,6.34 14.26,-1.59 20.6,1.58 12.68,7.93 -11.09,22.19 -17.43,33.28 0,1.58 1.58,3.17 1.58,3.17 12.68,-11.09 22.19,-23.77 38.04,-31.69 7.92,-3.17 26.94,-7.93 23.77,1.58 -7.92,17.44 -23.77,31.7 -36.45,47.54 0,1.59 0,4.76 0,6.35 -3.17,0 -3.17,1.58 -4.75,3.16 0,1.59 0,4.76 0,6.34 -6.34,3.17 -4.76,9.51 -7.93,14.27 -4.75,7.92 -1.58,19.01 -4.75,28.52 -3.17,9.51 -4.76,17.43 -6.34,26.94 -4.75,26.94 -11.09,50.71 -14.27,76.07 -3.16,30.11 17.44,53.88 31.7,80.82 11.1,19.02 23.77,38.04 44.37,50.72 4.76,19.02 17.44,34.86 30.12,50.71 12.65,15.47 33.68,24.89 48.92,31.7 22.13,9.88 42.11,16.07 42.12,16.07 H 837.844 V 3841.2 h 770.216 c 30.17,21.72 60.31,32.04 102.42,52.79 19.88,9.8 65.38,30.7 80.8,46.11"
         style="fill:#283a7f;fill-opacity:1;fill-rule:nonzero;stroke:none"
         id="path538" />
      <path
         d="m 3144.1,4679.84 h -902.14 c 0.01,0 1.7,-0.28 8.57,-3.96 7.32,-3.93 16.8,-9 22.76,-12.11 11.62,-6.09 22.93,-13.71 30.22,-25.36 3.17,-4.76 7.92,-14.27 4.75,-20.6 -3.17,-7.93 -4.75,-20.61 -12.68,-23.77 -9.5,-4.76 -22.19,-4.76 -33.28,-3.18 -6.34,0 -12.68,1.59 -19.01,3.18 23.77,-9.51 45.95,-20.61 61.8,-42.79 1.59,-3.17 7.92,-4.76 14.26,-4.76 1.59,0 1.59,-3.17 1.59,-4.75 -3.17,-3.17 -6.34,-4.76 -4.76,-9.51 1.59,0 3.17,0 4.76,0 7.92,3.17 6.34,19.02 17.43,14.26 7.93,-4.75 11.09,-15.85 6.34,-23.77 -6.34,-6.34 -12.68,-11.09 -19.02,-15.85 -1.58,-3.17 -1.58,-7.92 0,-11.09 4.76,-6.34 6.34,-12.68 7.92,-19.02 4.76,-11.09 6.35,-23.77 11.1,-34.86 6.34,-23.78 12.68,-47.55 11.09,-71.32 0,-12.68 -6.34,-23.77 -1.58,-36.45 3.17,-12.68 11.09,-22.19 17.43,-33.28 6.34,-9.51 12.68,-15.85 17.43,-25.35 9.51,-15.85 26.94,-31.7 19.02,-50.72 -4.75,-11.09 -22.19,-9.5 -33.28,-15.85 -9.51,-7.92 -1.59,-20.6 3.17,-28.52 7.92,-14.26 -9.51,-23.77 -20.6,-28.53 3.16,-4.75 9.51,-3.16 11.09,-6.33 1.58,-7.93 9.51,-12.68 4.75,-20.61 -6.33,-9.51 -25.35,-14.26 -15.84,-28.52 6.34,-11.09 2.23,-23.42 -1.59,-34.87 -4.75,-14.26 -17.43,-20.6 -28.52,-23.77 -9.51,-3.17 -20.6,-3.17 -30.12,-1.58 -3.16,1.58 -6.33,3.16 -9.5,3.16 -26.95,3.18 -53.88,11.1 -80.83,11.1 -7.92,-1.58 -15.84,-3.17 -22.18,-6.34 -7.16,-5.25 -13.54,-10.96 -19.19,-16.96 -0.06,-0.07 -0.12,-0.14 -0.19,-0.21 -1.18,-1.26 -2.33,-2.55 -3.45,-3.84 -0.69,-0.8 -1.37,-1.61 -2.04,-2.43 -0.45,-0.54 -0.91,-1.09 -1.35,-1.64 -4.63,-5.79 -8.78,-11.9 -12.48,-18.26 -0.23,-0.4 -0.47,-0.81 -0.7,-1.21 -0.41,-0.73 -0.82,-1.48 -1.22,-2.22 -5.21,-9.63 -9.14,-19.46 -12,-29.07 -10.77,-36.3 -6.06,-67.43 1.5,-74.99 2.1,-2.1 52.31,-17.61 87.28,-33.16 16.4,-7.3 27.88,-12.92 37.4,-18.93 h 885.89 v 838.64"
         style="fill:#ed1c24;fill-opacity:1;fill-rule:nonzero;stroke:none"
         id="path540" />
      <path
         d="m 2295.62,4373.9 c 6.34,-1.59 15.85,-1.59 15.85,-4.76 -3.17,-12.67 -22.2,-15.84 -31.7,-28.53 h -4.76 c -4.75,-3.16 -3.16,-11.09 -7.92,-11.09 -4.76,1.59 -9.52,0 -14.26,-1.58 6.34,-6.34 14.26,-11.1 23.77,-9.51 1.59,0 4.75,-3.18 4.75,-6.35 0,0 1.59,0 3.17,1.6 1.59,0 3.18,0 3.18,-1.6 v -6.33 c -4.76,-6.34 -12.69,-3.17 -19.03,-4.76 12.68,-3.17 25.36,-3.17 36.45,0 9.52,3.17 0,19.02 6.35,26.95 -3.17,0 0,4.75 -3.17,4.75 3.17,3.17 6.34,7.92 9.5,9.51 3.18,0 7.93,1.58 9.51,4.76 0,3.16 -6.33,4.75 -4.75,7.92 9.51,6.34 17.43,15.85 14.27,25.36 -1.59,4.75 -14.27,4.75 -22.19,7.92 -7.93,3.17 -17.44,0 -26.94,-1.58 -7.93,0 -15.85,-4.76 -23.78,-6.34 -11.09,-3.17 -20.6,-9.51 -30.11,-15.85 11.1,4.75 22.19,6.34 34.86,9.51 9.52,0 17.59,2.34 26.95,0"
         style="fill:#918f90;fill-opacity:1;fill-rule:nonzero;stroke:none"
         id="path542" />
    </g>
  </g>
</svg>
